<svg width="48" height="48" viewBox="0 0 48 48" fill="none" xmlns="http://www.w3.org/2000/svg">
  <style>
    path {
    fill: #000;
    }
    @media (prefers-color-scheme: dark) {
    path {
    fill: #fff;
    }
    }
  </style>
  <path fill-rule="evenodd" clip-rule="evenodd"
    d="M46.9374 21.8548C46.8651 22.101 46.665 22.3339 46.4502 22.4414C46.3701 22.4813 46.2685 22.5124 46.1306 22.5399C46.1129 22.5435 46.0946 22.5451 46.0764 22.5449C42.9107 22.4942 39.744 22.2185 36.6262 21.6929C35.7094 22.4513 34.8143 23.2302 33.9403 24.0485C34.8119 24.8445 35.6866 25.6022 36.6017 26.359C39.7421 25.8577 42.9097 25.557 46.104 25.5317H46.1061C46.2247 25.5317 46.3585 25.5678 46.4422 25.5957C47.0906 25.8117 47.0694 26.7807 46.6539 27.2085C46.4955 27.398 46.2443 27.4965 46.0065 27.4972C43.5136 27.5443 41.0431 27.7216 38.5749 28.0494C40.5404 29.5385 42.5925 30.939 44.7313 32.231C44.7344 32.2329 44.7377 32.235 44.7408 32.2371L44.7512 32.244C44.8172 32.2878 44.9221 32.3575 45.001 32.4651C45.1077 32.5791 45.1464 32.6958 45.1714 32.771L45.1735 32.7771C45.1822 32.8032 45.1865 32.8304 45.1865 32.8579C45.1865 32.8725 45.1876 32.8817 45.1893 32.8973C45.1909 32.9119 45.1929 32.932 45.1956 32.9673C45.1989 33.0151 45.2028 33.0976 45.177 33.1827C45.1495 33.2916 45.1153 33.3995 45.0415 33.5101C45.0321 33.524 45.0215 33.537 45.0095 33.5488C44.9946 33.5638 44.9791 33.5806 44.9586 33.6027C44.9397 33.6234 44.9161 33.6487 44.8914 33.6734C44.8426 33.7222 44.7752 33.7828 44.6878 33.8264C44.5499 33.8954 44.4087 33.9301 44.2416 33.9301C44.0877 33.9301 43.9031 33.9006 43.7427 33.7856C41.0367 32.1674 38.455 30.3743 36.0226 28.4062C34.9265 28.5915 33.8295 28.8175 32.7307 29.0659C33.0576 30.2911 33.4062 31.5133 33.7959 32.7139C36.6531 33.807 39.4099 35.0989 42.0909 36.5651C42.0975 36.5688 42.1039 36.5726 42.11 36.5767C42.1135 36.5788 42.1169 36.5813 42.1206 36.5837C42.1871 36.6278 42.2934 36.6983 42.3724 36.8078C42.4252 36.8686 42.4549 36.9377 42.4718 36.9815C42.4855 37.0171 42.4998 37.0622 42.5093 37.0923C42.5126 37.1025 42.5152 37.111 42.5171 37.1168C42.5258 37.1428 42.5303 37.1701 42.5303 37.1975C42.5303 37.2121 42.5312 37.2213 42.5329 37.237C42.5345 37.2516 42.5368 37.2717 42.5392 37.307C42.5427 37.3547 42.5465 37.4371 42.5208 37.5222C42.4942 37.6269 42.4617 37.7306 42.3938 37.8366C42.2734 38.0646 42.0528 38.1973 41.8342 38.2599C41.823 38.263 41.8116 38.2654 41.8001 38.267C41.5748 38.2993 41.3429 38.268 41.139 38.1661C41.1361 38.1647 41.1331 38.1631 41.1302 38.1616C38.9848 36.9834 36.7954 35.936 34.5616 34.9992C35.4339 37.41 36.4368 39.794 37.5497 42.0896C37.5515 42.093 37.553 42.0967 37.5546 42.1005C37.5555 42.1022 37.5562 42.1042 37.557 42.1061C37.6163 42.2541 37.6519 42.389 37.6519 42.5582C37.6519 42.7253 37.5749 42.9 37.5228 43.0043C37.5159 43.018 37.5079 43.031 37.4987 43.0432C37.495 43.048 37.4914 43.0531 37.4874 43.0583C37.4196 43.1489 37.3107 43.2949 37.1532 43.3737C37.0153 43.4425 36.8739 43.4772 36.7068 43.4772C36.569 43.4772 36.3814 43.4439 36.2216 43.324C36.0822 43.2195 35.9819 43.084 35.9164 42.9532C34.4987 40.0941 33.2808 37.1095 32.2877 34.0748C31.0567 33.6136 29.8037 33.1938 28.528 32.796C28.267 33.7149 28.0432 34.6518 27.8393 35.5731C29.9859 38.1572 31.9323 40.891 33.6789 43.7746C33.8215 43.9914 33.8557 44.2458 33.7853 44.4918C33.7843 44.4954 33.7833 44.4989 33.782 44.5024C33.7157 44.7011 33.5821 44.9043 33.3749 45.0426C33.278 45.1072 33.1508 45.1459 33.0864 45.1657C33.0749 45.1692 33.0655 45.172 33.0586 45.1744C32.9295 45.2173 32.7706 45.2173 32.6416 45.1744C32.5318 45.1378 32.4302 45.0699 32.3612 45.0238L32.3508 45.0171C32.2308 44.937 32.1548 44.8225 32.1081 44.7525L32.1012 44.7419C32.1001 44.7404 32.0991 44.7386 32.098 44.7371C32.0968 44.7353 32.0958 44.7334 32.0947 44.7317C30.6633 42.3475 29.0983 40.0757 27.3783 37.916C26.8751 40.6105 26.5312 43.3259 26.3881 46.0627C26.386 46.3189 26.2729 46.5315 26.109 46.6955C25.9434 46.8609 25.7282 46.9745 25.4687 46.9745C25.3499 46.9745 25.2161 46.9382 25.1324 46.9102C25.0103 46.8696 24.8835 46.787 24.7963 46.6566L24.7895 46.6462C24.7435 46.5772 24.6756 46.4758 24.6389 46.3658C24.5999 46.2488 24.6 46.1101 24.6002 46.041V46.0299C24.6002 46.0282 24.6002 46.0266 24.6004 46.0249C24.6004 46.0226 24.6004 46.0205 24.6006 46.0183C24.7525 42.6753 25.2049 39.3337 25.8828 36.0678C25.2538 35.3272 24.6282 34.5935 23.9678 33.8969C23.1408 34.8188 22.3355 35.7411 21.5515 36.683C22.0776 39.7724 22.379 42.9103 22.4802 46.0473C22.4802 46.0499 22.4804 46.0527 22.4804 46.0554C22.4804 46.1699 22.4465 46.2986 22.4191 46.3825C22.3833 46.5183 22.3163 46.6255 22.244 46.7031C22.1577 46.8216 22.038 46.8973 21.9225 46.9357C21.8389 46.9637 21.705 47 21.5864 47C21.4426 47 21.3328 46.9633 21.2564 46.9378L21.2501 46.9357C21.2287 46.9286 21.2082 46.9185 21.1893 46.906L21.1792 46.8993C21.1162 46.8574 21.0311 46.8008 20.9638 46.7382C20.8454 46.6519 20.7697 46.5324 20.7311 46.4169C20.7035 46.3342 20.6677 46.2027 20.6668 46.0851C20.5961 43.59 20.3726 41.0941 20.0165 38.6179C18.5032 40.5857 17.1008 42.6404 15.8293 44.7817C15.8247 44.7895 15.8196 44.7972 15.8141 44.8046C15.8104 44.8093 15.8068 44.8144 15.8028 44.8196C15.7382 44.9061 15.636 45.0429 15.4899 45.1237C15.3395 45.2305 15.1854 45.2641 15.0222 45.2641C14.8863 45.2641 14.7019 45.2316 14.5435 45.1157C14.5417 45.1145 14.5398 45.1133 14.5381 45.1121C14.4716 45.068 14.3652 44.9974 14.2862 44.888C14.2332 44.8272 14.2037 44.7581 14.1869 44.7143C14.1731 44.6787 14.1587 44.6335 14.1493 44.6035C14.146 44.5932 14.1433 44.5847 14.1414 44.579C14.1327 44.5529 14.1283 44.5257 14.1283 44.4982V44.2431C14.1283 44.0916 14.1683 43.9676 14.2438 43.8521C15.8389 41.1705 17.6337 38.5889 19.6041 36.1562C19.4188 35.0619 19.1925 33.9675 18.9252 32.873C17.8528 33.1955 16.7817 33.5398 15.7116 33.9237C14.6944 37.0327 13.4766 40.0924 12.0334 43.0282C12.0314 43.032 12.0294 43.0359 12.0273 43.0395C12.0259 43.0419 12.0245 43.0446 12.0231 43.047C11.9269 43.207 11.8263 43.3074 11.7019 43.4006C11.6948 43.4058 11.6875 43.4107 11.6801 43.4152C11.5128 43.5154 11.3653 43.5538 11.1911 43.5538C11.0448 43.5538 10.9038 43.5168 10.7704 43.4503C10.7608 43.4454 10.7516 43.4402 10.743 43.4343C10.7395 43.4321 10.736 43.4298 10.7324 43.4274C10.6662 43.3834 10.5604 43.3133 10.4814 43.2045C10.3989 43.1125 10.3388 42.9799 10.3103 42.8941C10.3082 42.8881 10.3063 42.8818 10.3047 42.8754C10.2715 42.7427 10.2715 42.6393 10.2715 42.5396V42.5327C10.2715 42.4168 10.3058 42.2723 10.3804 42.1524C11.5442 39.7535 12.5748 37.2886 13.4513 34.7781C11.1392 35.6963 8.87466 36.7461 6.69875 37.9276C6.57765 38.0047 6.43039 38.04 6.31266 38.04C6.3092 38.04 6.30552 38.04 6.30161 38.04C6.23229 38.04 6.09373 38.0403 5.97648 38.0012C5.88451 37.9707 5.73878 37.904 5.64677 37.8119C5.57736 37.7426 5.51413 37.6478 5.46837 37.579L5.46161 37.5689C5.37954 37.4458 5.34209 37.2932 5.34209 37.172C5.34209 37.1685 5.34209 37.1649 5.34207 37.1609C5.34193 37.0916 5.34165 36.9531 5.38073 36.8359C5.41735 36.7261 5.48525 36.6247 5.53131 36.5557C5.53368 36.5523 5.53599 36.5488 5.53823 36.5453C5.61828 36.4253 5.73277 36.3494 5.80292 36.3028C5.80654 36.3004 5.81003 36.2981 5.8134 36.2959C5.81936 36.2919 5.82549 36.2882 5.83174 36.2848C8.5403 34.7922 11.3479 33.5245 14.2301 32.4572C14.594 31.3335 14.9174 30.1887 15.2193 29.0405C14.1202 28.7921 13.0227 28.5662 11.9265 28.3806C9.4939 30.3488 6.91223 32.1419 4.20629 33.7601C4.04594 33.8751 3.86123 33.9046 3.70744 33.9046C3.57035 33.9046 3.40282 33.8718 3.26117 33.8009C3.14038 33.7406 2.98676 33.6362 2.8987 33.4709C2.83926 33.376 2.80303 33.2576 2.7842 33.1961C2.78072 33.1848 2.77784 33.1754 2.77551 33.1683C2.7325 33.0394 2.7325 32.8806 2.77551 32.7516C2.81213 32.6418 2.88004 32.5402 2.92611 32.4714L2.93302 32.461C3.01306 32.341 3.12753 32.265 3.19768 32.2185C3.20131 32.2161 3.20481 32.2138 3.20818 32.2116C3.21132 32.2095 3.21452 32.2074 3.21775 32.2055C5.35987 30.9114 7.43593 29.5092 9.40566 27.9987C6.93046 27.6673 4.43651 27.4696 1.94376 27.4462C1.82947 27.4458 1.70149 27.4123 1.61775 27.3848C1.47606 27.3475 1.35156 27.2716 1.26283 27.1505C1.1748 27.059 1.10346 26.9551 1.06424 26.8377L1.06223 26.8316C1.03669 26.755 1.00006 26.6454 1.00006 26.5016C1.00006 26.2318 1.10209 25.9876 1.27919 25.8106C1.45282 25.6371 1.69581 25.5317 1.94508 25.5317H1.94711C5.13989 25.5568 8.33273 25.8325 11.4763 26.3583C12.3721 25.6222 13.2637 24.8674 14.1155 24.074C13.2619 23.2559 12.3674 22.4768 11.4494 21.7176C8.3091 22.2189 5.14143 22.5196 1.94711 22.5449H1.94508C1.82638 22.5449 1.69261 22.5086 1.60891 22.4808C1.49376 22.4424 1.37461 22.3671 1.28835 22.2493C1.20033 22.1578 1.129 22.0539 1.08979 21.9365C1.08773 21.9302 1.0859 21.924 1.0843 21.9175C1.08116 21.905 1.07758 21.8915 1.07381 21.8772C1.05293 21.7985 1.02559 21.6955 1.02559 21.5748C1.02559 21.3264 1.13032 21.098 1.24729 20.9228C1.25661 20.9087 1.26731 20.8957 1.27919 20.8839C1.44445 20.7187 1.6593 20.6052 1.91831 20.6049C4.43742 20.5813 6.93463 20.4053 9.4305 20.0767C7.46007 18.5626 5.38414 17.1388 3.24328 15.8456C3.23373 15.8397 3.22457 15.8334 3.21585 15.8265C3.04684 15.6913 2.9176 15.4956 2.85215 15.2993C2.77384 15.0646 2.81685 14.8044 2.95855 14.592C3.0901 14.3949 3.26555 14.2516 3.50956 14.1819C3.75597 14.1116 4.00039 14.1479 4.20478 14.25C4.21105 14.2531 4.21719 14.2566 4.22316 14.2602C6.9322 15.905 9.51648 17.7248 11.9755 19.7196C13.0759 19.5132 14.1707 19.3065 15.2452 19.0623C14.9178 17.8143 14.5683 16.5871 14.1775 15.3611C11.3224 14.2446 8.5429 12.954 5.88771 11.5136C5.6533 11.3946 5.51745 11.1709 5.45409 10.9492C5.45089 10.9379 5.44846 10.9266 5.44683 10.9152C5.41902 10.7206 5.40741 10.4613 5.56378 10.2268C5.56602 10.2235 5.56834 10.22 5.57076 10.2164C5.61465 10.1502 5.68467 10.0449 5.79308 9.96608C5.9061 9.86308 6.04633 9.82018 6.10954 9.80072C6.11758 9.79829 6.12439 9.79621 6.12972 9.79447C6.13592 9.79239 6.14221 9.79048 6.14855 9.78891C6.28136 9.75574 6.38479 9.75574 6.4845 9.75574H6.49144C6.64143 9.75574 6.76458 9.79499 6.87905 9.86899C9.00094 11.0468 11.1878 12.1152 13.4396 13.0539C12.5697 10.6412 11.5887 8.25673 10.476 5.96147C10.4742 5.95792 10.4725 5.95433 10.4709 5.95071C10.3778 5.73337 10.3379 5.49325 10.4091 5.24396C10.4777 5.00406 10.6457 4.79587 10.8588 4.68428C10.9795 4.6085 11.1253 4.5738 11.2422 4.5738C11.2456 4.5738 11.2493 4.5738 11.2531 4.57378C11.3224 4.57364 11.461 4.57336 11.5783 4.61243C11.6882 4.64902 11.7898 4.71691 11.8588 4.76294C11.8623 4.7653 11.8657 4.76759 11.869 4.76983C11.8831 4.77916 11.8961 4.78984 11.9079 4.80172C11.9774 4.8711 12.0407 4.96602 12.0865 5.03474C12.0888 5.03818 12.091 5.04155 12.0931 5.04485C12.0995 5.05442 12.1053 5.06439 12.1103 5.07472C13.5023 7.93313 14.7196 10.9167 15.7126 13.9518C16.9165 14.4114 18.1425 14.83 19.391 15.2265C19.6377 14.3026 19.8803 13.3643 20.0846 12.4263C17.9632 9.84293 16.0168 7.10893 14.2949 4.22419C14.2325 4.12809 14.195 4.00508 14.1756 3.94197C14.1721 3.93061 14.1693 3.9212 14.1669 3.91423C14.128 3.79719 14.1243 3.65565 14.1561 3.53408C14.1638 3.4593 14.1893 3.39595 14.2127 3.34921C14.2391 3.29642 14.2723 3.24666 14.2958 3.21148L14.2989 3.2069C14.379 3.08689 14.4934 3.01093 14.5636 2.96438C14.5673 2.96197 14.5707 2.95966 14.574 2.9574C14.6711 2.89277 14.7981 2.85391 14.8627 2.8342C14.874 2.83072 14.8834 2.82784 14.8903 2.82553C15.0163 2.78361 15.1703 2.78256 15.2975 2.82235C15.3684 2.84094 15.4274 2.8669 15.4708 2.88697C15.4832 2.89266 15.4938 2.89754 15.5028 2.90176C15.5323 2.91552 15.5469 2.92235 15.5627 2.92763C15.5843 2.9348 15.6048 2.94482 15.6237 2.9574C15.7437 3.0374 15.8198 3.1518 15.8663 3.22192C15.8688 3.22555 15.871 3.22905 15.8733 3.23242C15.8759 3.23631 15.8783 3.24027 15.8808 3.2443C17.2865 5.62555 18.8486 7.89561 20.5465 10.0545C21.046 7.38303 21.3672 4.66839 21.5101 1.93119C21.5105 1.92357 21.5112 1.91596 21.5124 1.9084C21.5457 1.67502 21.6477 1.47119 21.8144 1.30451C22.0045 1.11462 22.2572 1.05105 22.4804 1.05105C22.7225 1.05105 22.9541 1.15086 23.0934 1.25527C23.1106 1.26817 23.126 1.28321 23.1396 1.30001C23.2709 1.46417 23.3743 1.69755 23.3743 1.9445C23.3743 1.94898 23.3741 1.95344 23.3739 1.95791C23.1967 5.32354 22.7693 8.64008 22.067 11.9073C22.6942 12.6424 23.3406 13.3591 23.9911 14.0768C24.8351 13.1783 25.6394 12.2584 26.423 11.3168C25.8969 8.22754 25.5958 5.08904 25.5198 1.95067V1.9445C25.5198 1.72158 25.5833 1.46886 25.7734 1.27898C25.9389 1.11355 26.1541 1 26.4136 1C26.5324 1 26.6662 1.03627 26.7499 1.06415C26.7714 1.07132 26.7919 1.08134 26.8109 1.09392L26.8209 1.10066C26.884 1.14259 26.9689 1.19918 27.0361 1.26175C27.1546 1.348 27.2305 1.46751 27.2689 1.58298C27.2965 1.66565 27.3323 1.7972 27.3332 1.9148C27.4039 4.40974 27.6274 6.88365 27.9835 9.35658C29.4969 7.38876 30.8995 5.33555 32.1713 3.21715C32.1734 3.21369 32.1755 3.21027 32.1778 3.2069C32.18 3.20353 32.1825 3.20002 32.1849 3.19641C32.2287 3.13052 32.2983 3.02558 32.4062 2.94677C32.5201 2.84033 32.6369 2.80156 32.7121 2.77653L32.7183 2.77446C32.7444 2.76579 32.7716 2.76136 32.7991 2.76136C32.8137 2.76136 32.8229 2.76037 32.8385 2.75869C32.8531 2.75713 32.8733 2.75497 32.9085 2.75244C32.9563 2.74903 33.0388 2.74512 33.1239 2.77088C33.2286 2.79735 33.3323 2.82996 33.4385 2.89779C33.6665 3.01802 33.7994 3.2386 33.8619 3.45706C33.8646 3.46632 33.8666 3.47571 33.8682 3.48521C33.9022 3.68896 33.8701 3.94814 33.7682 4.15188C33.7652 4.15795 33.7619 4.16387 33.7584 4.16967C32.1382 6.85151 30.3428 9.40904 28.3721 11.8172C28.5793 12.937 28.807 14.056 29.0552 15.1555C30.1214 14.8513 31.1889 14.4902 32.2631 14.1249C33.2811 10.965 34.5244 7.88032 35.9927 4.91991C36.1172 4.67098 36.3573 4.56584 36.5239 4.51031C36.7589 4.43202 36.9835 4.47772 37.1787 4.57522C37.1947 4.58326 37.21 4.59297 37.224 4.60421C37.3594 4.71246 37.5376 4.87895 37.6133 5.10573C37.6143 5.10924 37.6156 5.11276 37.6164 5.11632C37.6795 5.33676 37.6829 5.56867 37.6133 5.77771C37.6096 5.78822 37.6055 5.7985 37.6006 5.80847C36.4082 8.2635 35.3504 10.7623 34.4475 13.3259C36.786 12.4088 39.0586 11.3786 41.2865 10.1941C41.2946 10.1898 41.303 10.186 41.3117 10.1825C41.5048 10.1052 41.747 10.1108 41.9469 10.1773C42.1565 10.2471 42.3381 10.3894 42.4478 10.603C42.5562 10.7892 42.5852 11.0258 42.5527 11.2244C42.5142 11.4885 42.361 11.668 42.2045 11.793C42.1925 11.8028 42.1795 11.8113 42.1659 11.8186C39.4333 13.2853 36.6012 14.5522 33.6942 15.6194C33.3548 16.6915 33.0548 17.7651 32.7567 18.8613C33.8798 19.13 35.0051 19.3591 36.1518 19.5671C38.5617 17.6225 41.1197 15.8534 43.7766 14.2349C43.7827 14.2311 43.7889 14.2278 43.7952 14.2245C43.9996 14.1223 44.244 14.086 44.4905 14.1564C44.7346 14.226 44.91 14.3693 45.0415 14.5665C45.0474 14.5753 45.0528 14.5845 45.0575 14.5939C45.1415 14.7619 45.2254 14.982 45.1558 15.2463C45.113 15.5076 44.9567 15.687 44.7663 15.814C44.763 15.8162 44.7596 15.8183 44.7561 15.8204C42.6417 17.0884 40.6132 18.487 38.6708 19.9765C41.1206 20.3075 43.589 20.5047 46.0564 20.5283C46.1707 20.5285 46.2985 20.5622 46.3823 20.5894C46.524 20.627 46.6485 20.7029 46.7373 20.8239C46.8252 20.9155 46.8966 21.0192 46.9358 21.1368C46.9379 21.143 46.9396 21.1493 46.9412 21.1555C46.9445 21.1682 46.948 21.1816 46.9518 21.1958C46.9727 21.2747 46.9999 21.3777 46.9999 21.4982C46.9999 21.6365 46.9669 21.7657 46.9374 21.8548ZM31.4156 27.4081C31.4232 27.4057 31.4309 27.4034 31.4385 27.4017C31.6459 27.3536 31.8524 27.3053 32.0584 27.2572C32.7708 27.0909 33.4758 26.9263 34.1795 26.7708C33.3935 26.0988 32.6271 25.3925 31.8804 24.6682L31.8778 24.6654C31.7123 24.5001 31.5985 24.2849 31.5985 24.0255C31.5985 23.766 31.7123 23.551 31.8778 23.3854C31.8795 23.3837 31.8813 23.382 31.8832 23.3802C32.6535 22.6544 33.4246 21.9467 34.2286 21.2413C33.2953 21.0548 32.3635 20.8347 31.4331 20.5969C31.4272 20.5953 31.4213 20.5936 31.4156 20.5917C31.3058 20.5552 31.2042 20.4873 31.1352 20.4413L31.1248 20.4343C31.0048 20.3543 30.9287 20.24 30.8822 20.1698C30.8797 20.1661 30.8775 20.1627 30.8752 20.1594C30.8627 20.1404 30.8526 20.1199 30.8455 20.0984C30.8427 20.0902 30.8384 20.0796 30.8302 20.0605C30.8231 20.044 30.8116 20.0178 30.8014 19.9912C30.7825 19.9419 30.7614 19.8757 30.7568 19.796C30.7298 19.6721 30.7272 19.5354 30.7649 19.4132C31.0077 18.3989 31.27 17.3828 31.5683 16.3818C30.578 16.7069 29.5989 17.0113 28.5994 17.2777C28.5779 17.2834 28.5558 17.2864 28.5336 17.2864H28.3804C28.213 17.2864 27.9691 17.2617 27.791 17.0839C27.787 17.0799 27.7829 17.0757 27.7785 17.0714C27.6853 16.9786 27.5341 16.8282 27.4919 16.5993C27.2531 15.6444 27.033 14.6717 26.8312 13.7126C26.1105 14.5432 25.3579 15.3398 24.6096 16.1317L24.6072 16.1343C24.6054 16.136 24.6039 16.1377 24.6021 16.1395C24.4366 16.3048 24.2214 16.4184 23.9617 16.4184C23.7329 16.4184 23.4912 16.3092 23.3215 16.1395C23.3194 16.1374 23.3173 16.1353 23.3152 16.133C22.7104 15.4855 22.1238 14.8378 21.5402 14.175C21.3403 14.9891 21.1224 15.803 20.8867 16.617C20.8843 16.6251 20.8817 16.6329 20.8786 16.6408C20.8186 16.7905 20.7146 16.9784 20.5173 17.0967C20.367 17.1869 20.1933 17.2609 19.9772 17.2609H19.7985C19.7737 17.2609 19.7488 17.2572 19.725 17.2501C18.6036 16.9138 17.4809 16.5576 16.3572 16.164C16.6817 17.2597 16.9693 18.3572 17.2373 19.4731C17.242 19.4927 17.2443 19.5127 17.2443 19.5327C17.2443 19.5565 17.2459 19.5712 17.2479 19.5936C17.2495 19.6087 17.2512 19.6275 17.2533 19.6549C17.257 19.7058 17.2584 19.7696 17.2438 19.8436C17.2387 19.9841 17.1979 20.101 17.1248 20.2104C17.1225 20.2137 17.1203 20.2172 17.1178 20.2209C17.0713 20.291 16.9952 20.4053 16.8752 20.4854C16.7697 20.5556 16.6655 20.5903 16.5915 20.615L16.5844 20.6172C16.5773 20.6197 16.5702 20.6217 16.5629 20.6235C15.6576 20.8389 14.7305 21.0551 13.7993 21.241C14.5874 21.9264 15.372 22.6319 16.1196 23.3573L16.1224 23.3599C16.2879 23.5254 16.4015 23.7405 16.4015 24C16.4015 24.2593 16.2879 24.4745 16.1224 24.6399L16.1196 24.6427C15.3697 25.3701 14.6017 26.059 13.8167 26.7408C14.7333 26.9348 15.6381 27.1351 16.5436 27.3715C16.6202 27.3784 16.6852 27.4046 16.7327 27.4284C16.7856 27.4548 16.8354 27.488 16.8707 27.5115L16.8752 27.5146C16.9952 27.5945 17.0713 27.709 17.1178 27.7791C17.1203 27.7826 17.1225 27.7863 17.1248 27.7896C17.1375 27.8085 17.1474 27.829 17.1547 27.8503L17.1552 27.8521C17.1807 27.9287 17.2089 28.0129 17.2366 28.1244C17.2695 28.2554 17.2757 28.4036 17.2354 28.5351C16.9903 29.5804 16.707 30.6248 16.4024 31.6675C17.3749 31.3429 18.3521 31.0391 19.3495 30.7733C19.3573 30.7712 19.3653 30.7695 19.3733 30.7681C19.581 30.7336 19.8145 30.7679 20.0149 30.8682C20.0243 30.8729 20.0335 30.8782 20.0424 30.8842C20.2397 31.0156 20.383 31.1909 20.4527 31.4348C20.4534 31.437 20.454 31.4395 20.4546 31.4417C20.6943 32.378 20.9152 33.3505 21.1174 34.3117C21.8323 33.4818 22.5655 32.6857 23.3162 31.8913C23.3169 31.8906 23.3176 31.8899 23.3183 31.8892C23.3194 31.8881 23.3204 31.8871 23.3215 31.886C23.4868 31.7207 23.7022 31.6071 23.9617 31.6071C24.2214 31.6071 24.4366 31.7207 24.6021 31.886L24.6053 31.8892C25.2118 32.5171 25.7996 33.1627 26.3836 33.8254C26.5835 33.017 26.8013 32.2211 27.0367 31.4084C27.0377 31.4052 27.0388 31.4019 27.0398 31.3986C27.0764 31.2889 27.1444 31.1873 27.1904 31.1185L27.1973 31.108C27.2774 30.988 27.3917 30.9121 27.4619 30.8656C27.4655 30.8631 27.469 30.8609 27.4725 30.8586C27.5956 30.7766 27.7483 30.7391 27.8696 30.7391C27.873 30.7391 27.8767 30.7391 27.8805 30.7391C27.9489 30.7389 28.0846 30.7388 28.2006 30.7761C29.3522 31.1146 30.503 31.4928 31.6522 31.8925C31.34 30.7926 31.0319 29.673 30.7628 28.5523C30.7581 28.5328 30.7557 28.5128 30.7557 28.4927C30.7557 28.4689 30.7543 28.4541 30.7521 28.4319C30.7505 28.4166 30.7488 28.398 30.7469 28.3706C30.7432 28.3195 30.7418 28.2559 30.7562 28.1818C30.7613 28.0412 30.8023 27.9245 30.8752 27.8151C30.8775 27.8118 30.8797 27.8081 30.8822 27.8047C30.9287 27.7345 31.0048 27.62 31.1248 27.5401C31.2303 27.4698 31.3346 27.4352 31.4085 27.4105L31.4156 27.4081Z"
    fill="black" />
</svg>