<svg width="56" height="31" viewBox="0 0 56 31" fill="none" xmlns="http://www.w3.org/2000/svg">
<path fill-rule="evenodd" clip-rule="evenodd" d="M23.2538 15.1544C23.2278 15.243 23.1558 15.3268 23.0785 15.3654C23.0497 15.3798 23.0131 15.391 22.9635 15.4009C22.9571 15.4022 22.9506 15.4028 22.944 15.4027C21.8049 15.3845 20.6655 15.2853 19.5436 15.0961C19.2138 15.369 18.8917 15.6493 18.5772 15.9437C18.8908 16.2301 19.2055 16.5028 19.5348 16.7751C20.6648 16.5947 21.8046 16.4865 22.9539 16.4774L22.9547 16.4774C22.9974 16.4774 23.0455 16.4904 23.0756 16.5004C23.3089 16.5782 23.3013 16.9268 23.1518 17.0807C23.0948 17.149 23.0044 17.1844 22.9189 17.1846C22.0219 17.2016 21.1329 17.2654 20.2448 17.3833C20.9521 17.9192 21.6905 18.4231 22.46 18.8879C22.4611 18.8886 22.4623 18.8894 22.4634 18.8901L22.4672 18.8926C22.4909 18.9084 22.5287 18.9334 22.5571 18.9722C22.5954 19.0132 22.6094 19.0552 22.6184 19.0822L22.6191 19.0845C22.6222 19.0938 22.6238 19.1036 22.6238 19.1135C22.6238 19.1188 22.6242 19.1221 22.6248 19.1277C22.6253 19.1329 22.6261 19.1402 22.627 19.1529C22.6283 19.1701 22.6297 19.1997 22.6204 19.2304C22.6105 19.2696 22.5982 19.3084 22.5716 19.3482C22.5683 19.3532 22.5644 19.3579 22.5601 19.3622C22.5548 19.3675 22.5492 19.3736 22.5418 19.3815L22.5417 19.3817C22.5348 19.3891 22.5265 19.3981 22.5176 19.4069C22.5001 19.4245 22.4758 19.4463 22.4444 19.462C22.3948 19.4868 22.3439 19.4993 22.2838 19.4993C22.2284 19.4993 22.162 19.4887 22.1043 19.4473C21.1306 18.8651 20.2017 18.2199 19.3264 17.5117C18.932 17.5784 18.5373 17.6597 18.1419 17.7491C18.2596 18.19 18.385 18.6297 18.5252 19.0617C19.5533 19.455 20.5453 19.9199 21.51 20.4475C21.5123 20.4487 21.5146 20.4501 21.5168 20.4516C21.518 20.4524 21.5193 20.4533 21.5206 20.4541C21.5445 20.47 21.5828 20.4954 21.6112 20.5348C21.6303 20.5566 21.6409 20.5815 21.647 20.5972C21.6519 20.6101 21.6571 20.6263 21.6605 20.6372C21.6617 20.6408 21.6626 20.6439 21.6633 20.646C21.6664 20.6553 21.668 20.6651 21.668 20.675C21.668 20.6803 21.6684 20.6836 21.669 20.6892C21.6696 20.6944 21.6703 20.7017 21.6712 20.7144C21.6725 20.7315 21.6739 20.7612 21.6646 20.7918C21.6551 20.8295 21.6433 20.8668 21.6189 20.9049C21.5756 20.987 21.4962 21.0348 21.4176 21.0572C21.4136 21.0584 21.4095 21.0593 21.4053 21.0599C21.3243 21.0714 21.2408 21.0602 21.1674 21.0235C21.1664 21.023 21.1653 21.0224 21.1643 21.0219C20.3923 20.598 19.6045 20.2211 18.8007 19.884C19.1146 20.7514 19.4755 21.6092 19.8759 22.4352C19.8765 22.4365 19.8771 22.4379 19.8777 22.4392C19.878 22.4398 19.8783 22.4405 19.8785 22.4412C19.8999 22.4944 19.9127 22.543 19.9127 22.6039C19.9127 22.664 19.885 22.7269 19.8662 22.7644C19.8638 22.7693 19.8609 22.774 19.8575 22.7784C19.8562 22.7801 19.8549 22.7819 19.8535 22.7838C19.8291 22.8165 19.7899 22.869 19.7332 22.8973C19.6836 22.9221 19.6328 22.9346 19.5726 22.9346C19.5231 22.9346 19.4555 22.9226 19.398 22.8794C19.3479 22.8418 19.3118 22.7931 19.2883 22.746L19.2881 22.7457C18.778 21.7169 18.3399 20.6433 17.9826 19.5514C17.5396 19.3854 17.0888 19.2344 16.6297 19.0913C16.5358 19.4219 16.4553 19.759 16.3819 20.0905C17.1543 21.0203 17.8547 22.004 18.4831 23.0416C18.5344 23.1196 18.5467 23.2111 18.5214 23.2996C18.521 23.3009 18.5207 23.3022 18.5202 23.3035C18.4964 23.375 18.4483 23.4481 18.3737 23.4978C18.3388 23.5211 18.2931 23.535 18.2699 23.5421C18.2658 23.5434 18.2624 23.5444 18.2599 23.5453C18.2135 23.5607 18.1563 23.5607 18.1099 23.5453C18.0704 23.5321 18.0338 23.5077 18.009 23.4911L18.0053 23.4886C17.9621 23.4598 17.9347 23.4187 17.918 23.3934L17.9154 23.3897C17.915 23.3891 17.9147 23.3885 17.9143 23.3879C17.9139 23.3872 17.9135 23.3866 17.9131 23.386C17.3981 22.5281 16.8349 21.7106 16.216 20.9335C16.035 21.9031 15.9113 22.8802 15.8598 23.8649C15.859 23.9571 15.8183 24.0336 15.7593 24.0925C15.6998 24.1521 15.6223 24.1929 15.5289 24.1929C15.4862 24.1929 15.4381 24.1799 15.4079 24.1698C15.364 24.1552 15.3184 24.1255 15.287 24.0785L15.2845 24.0748C15.268 24.05 15.2435 24.0135 15.2303 23.974C15.2163 23.9318 15.2164 23.882 15.2164 23.857L15.2164 23.8531C15.2164 23.8525 15.2164 23.8519 15.2165 23.8513C15.2165 23.8505 15.2165 23.8497 15.2165 23.8489C15.2712 22.646 15.434 21.4436 15.6779 20.2685C15.4516 20.002 15.2265 19.738 14.9888 19.4874C14.6913 19.8191 14.4015 20.1509 14.1194 20.4899C14.3088 21.6015 14.4172 22.7305 14.4536 23.8593C14.4536 23.8603 14.4536 23.8613 14.4536 23.8623C14.4536 23.9035 14.4415 23.9497 14.4316 23.98C14.4187 24.0288 14.3946 24.0674 14.3686 24.0953C14.3375 24.1379 14.2945 24.1652 14.253 24.179C14.2228 24.1891 14.1747 24.2021 14.132 24.2021C14.0802 24.2021 14.0407 24.1889 14.0132 24.1798L14.011 24.179C14.0033 24.1764 13.9959 24.1728 13.9891 24.1683L13.9855 24.1659C13.9628 24.1508 13.9322 24.1304 13.908 24.1079C13.8654 24.0769 13.8381 24.0339 13.8242 23.9923C13.8143 23.9626 13.8014 23.9153 13.8011 23.8729C13.7757 22.9751 13.6953 22.0771 13.5671 21.1861C13.0226 21.8942 12.518 22.6335 12.0605 23.4039C12.0588 23.4068 12.057 23.4095 12.055 23.4122C12.0537 23.4139 12.0523 23.4157 12.051 23.4176C12.0277 23.4487 11.991 23.4979 11.9384 23.527C11.8842 23.5655 11.8288 23.5775 11.7701 23.5775C11.7212 23.5775 11.6548 23.5658 11.5978 23.5241C11.5971 23.5237 11.5965 23.5233 11.5959 23.5228C11.5719 23.507 11.5337 23.4816 11.5052 23.4422C11.4862 23.4203 11.4755 23.3954 11.4695 23.3797C11.4645 23.3669 11.4594 23.3506 11.456 23.3398C11.4548 23.3361 11.4538 23.3331 11.4531 23.331C11.45 23.3216 11.4484 23.3118 11.4484 23.302V23.2101C11.4484 23.1556 11.4628 23.111 11.49 23.0695C12.0639 22.1046 12.7098 21.1756 13.4187 20.3003C13.3521 19.9066 13.2706 19.5128 13.1745 19.1189C12.7886 19.235 12.4032 19.3589 12.0181 19.497C11.6521 20.6157 11.2139 21.7166 10.6946 22.773C10.6939 22.7744 10.6932 22.7757 10.6924 22.7771C10.6919 22.778 10.6914 22.7789 10.6909 22.7797C10.6563 22.8374 10.6201 22.8734 10.5753 22.907C10.5728 22.9089 10.5702 22.9107 10.5675 22.9123C10.5073 22.9484 10.4542 22.9621 10.3915 22.9621C10.3389 22.9621 10.2882 22.9488 10.2402 22.9249C10.2367 22.9232 10.2334 22.9212 10.2303 22.9191C10.2291 22.9183 10.2278 22.9175 10.2265 22.9166C10.2027 22.9008 10.1646 22.8756 10.1362 22.8364C10.1065 22.8033 10.0849 22.7556 10.0746 22.7248C10.0738 22.7226 10.0732 22.7203 10.0726 22.718C10.0607 22.6703 10.0607 22.6331 10.0607 22.5972V22.5947C10.0607 22.553 10.073 22.501 10.0998 22.4579C10.5186 21.5947 10.8894 20.7077 11.2048 19.8044C10.3729 20.1348 9.55808 20.5126 8.77512 20.9377C8.73154 20.9654 8.67855 20.9781 8.63619 20.9781C8.63495 20.9781 8.63362 20.9781 8.63222 20.9781C8.60727 20.9782 8.55742 20.9783 8.51523 20.9642C8.48214 20.9532 8.42969 20.9292 8.39659 20.8961C8.37162 20.8711 8.34887 20.837 8.3324 20.8123L8.32997 20.8086C8.30043 20.7643 8.28696 20.7094 8.28696 20.6658C8.28696 20.6646 8.28696 20.6632 8.28695 20.6618C8.2869 20.6369 8.2868 20.5871 8.30087 20.5449C8.31404 20.5054 8.33848 20.4689 8.35505 20.4441C8.3559 20.4428 8.35673 20.4416 8.35754 20.4403C8.38634 20.3972 8.42753 20.3698 8.45278 20.3531C8.45408 20.3522 8.45534 20.3514 8.45655 20.3506C8.45869 20.3491 8.46089 20.3478 8.46315 20.3466C9.43772 19.8095 10.448 19.3534 11.4851 18.9693C11.616 18.565 11.7324 18.1531 11.841 17.74C11.4455 17.6506 11.0506 17.5692 10.6562 17.5025C9.78087 18.2107 8.85195 18.8559 7.87828 19.4382C7.82058 19.4795 7.75411 19.4901 7.69878 19.4901C7.64946 19.4901 7.58917 19.4783 7.53821 19.4529C7.49474 19.4311 7.43947 19.3936 7.40778 19.3341C7.38639 19.2999 7.37335 19.2573 7.36658 19.2352C7.36533 19.2311 7.36429 19.2277 7.36346 19.2252C7.34798 19.1788 7.34798 19.1217 7.36346 19.0753C7.37663 19.0358 7.40107 18.9992 7.41764 18.9744L7.42013 18.9707C7.44893 18.9275 7.49012 18.9002 7.51536 18.8835C7.51666 18.8826 7.51792 18.8818 7.51914 18.8809C7.52027 18.8802 7.52142 18.8795 7.52258 18.8788C8.29336 18.4132 9.04036 17.9086 9.74914 17.3651C8.8585 17.2458 7.96112 17.1747 7.06417 17.1663C7.02305 17.1662 6.977 17.154 6.94686 17.1442C6.89589 17.1308 6.85108 17.1034 6.81916 17.0599C6.78749 17.027 6.76181 16.9896 6.74771 16.9473L6.74698 16.9451C6.73779 16.9176 6.72461 16.8781 6.72461 16.8264C6.72461 16.7293 6.76132 16.6414 6.82505 16.5777C6.88752 16.5153 6.97495 16.4774 7.06465 16.4774H7.06538C8.2142 16.4865 9.36307 16.5856 10.4942 16.7748C10.8165 16.51 11.1373 16.2384 11.4438 15.9529C11.1367 15.6585 10.8148 15.3782 10.4845 15.105C9.35453 15.2854 8.21476 15.3936 7.06538 15.4027L7.06465 15.4027C7.02193 15.4027 6.9738 15.3896 6.94369 15.3796C6.90226 15.3658 6.85938 15.3387 6.82834 15.2963C6.79667 15.2634 6.771 15.226 6.7569 15.1837C6.75615 15.1815 6.75549 15.1793 6.75492 15.177C6.75379 15.1724 6.75251 15.1676 6.75115 15.1625C6.74363 15.1341 6.7338 15.097 6.7338 15.0537C6.7338 14.9642 6.77148 14.8821 6.81357 14.819C6.81692 14.814 6.82077 14.8093 6.82505 14.805C6.88451 14.7456 6.96181 14.7048 7.05502 14.7046C7.96144 14.6961 8.86002 14.6328 9.75805 14.5146C9.04903 13.9698 8.30209 13.4574 7.53177 12.9921C7.52833 12.99 7.52503 12.9877 7.5219 12.9852C7.46108 12.9366 7.41458 12.8662 7.39103 12.7956C7.36285 12.7111 7.37833 12.6175 7.42932 12.5411C7.47665 12.4701 7.53978 12.4186 7.62758 12.3935C7.71624 12.3682 7.80419 12.3813 7.87774 12.418C7.87999 12.4191 7.8822 12.4204 7.88435 12.4217C8.85915 13.0135 9.78897 13.6683 10.6738 14.3861C11.0698 14.3118 11.4637 14.2375 11.8503 14.1495C11.7325 13.7005 11.6067 13.2589 11.4661 12.8178C10.4388 12.4161 9.43867 11.9517 8.48329 11.4334C8.39894 11.3906 8.35006 11.3101 8.32726 11.2303C8.32611 11.2263 8.32524 11.2222 8.32464 11.2181C8.31464 11.1481 8.31046 11.0548 8.36673 10.9704C8.36754 10.9692 8.36837 10.9679 8.36924 10.9666C8.38503 10.9429 8.41023 10.9049 8.44923 10.8765C8.4899 10.8395 8.54036 10.8241 8.5631 10.8171C8.566 10.8162 8.56845 10.8155 8.57037 10.8148C8.5726 10.8141 8.57486 10.8134 8.57714 10.8128C8.62493 10.8009 8.66215 10.8009 8.69802 10.8009H8.70052C8.75452 10.8009 8.79879 10.815 8.84001 10.8417C9.60349 11.2655 10.3904 11.6499 11.2006 11.9877C10.8876 11.1195 10.5346 10.2615 10.1342 9.43563C10.1336 9.43435 10.133 9.43306 10.1324 9.43176C10.0989 9.35355 10.0845 9.26716 10.1102 9.17746C10.1348 9.09114 10.1953 9.01622 10.272 8.97607C10.3154 8.9488 10.3679 8.93632 10.4099 8.93632C10.4112 8.93632 10.4125 8.93632 10.4139 8.93631C10.4388 8.93626 10.4887 8.93616 10.5309 8.95022C10.5704 8.96339 10.607 8.98781 10.6318 9.00438C10.6331 9.00522 10.6343 9.00605 10.6355 9.00686C10.6405 9.01021 10.6452 9.01406 10.6495 9.01833C10.6745 9.0433 10.6972 9.07745 10.7137 9.10218C10.7145 9.10341 10.7154 9.10463 10.7161 9.10581C10.7184 9.10925 10.7205 9.11285 10.7223 9.11656C11.2232 10.1451 11.6612 11.2186 12.0185 12.3107C12.4517 12.4761 12.8928 12.6267 13.342 12.7694C13.4308 12.437 13.5181 12.0993 13.5916 11.7618C12.8283 10.8323 12.1279 9.84849 11.5083 8.81052C11.486 8.77594 11.4724 8.73168 11.4655 8.70897C11.4642 8.70489 11.4632 8.7015 11.4623 8.69899C11.4483 8.65688 11.447 8.60595 11.4584 8.5622C11.4612 8.5353 11.4704 8.51251 11.4788 8.49568C11.4883 8.47669 11.5003 8.45879 11.5087 8.44613L11.5098 8.44448C11.5386 8.4013 11.5798 8.37397 11.605 8.35722C11.6063 8.35635 11.6076 8.35552 11.6088 8.35471C11.6437 8.33145 11.6894 8.31747 11.7127 8.31037C11.7167 8.30913 11.7201 8.30809 11.7226 8.30725C11.7679 8.29217 11.8233 8.29179 11.8691 8.30611C11.8946 8.3128 11.9159 8.32214 11.9315 8.32936C11.936 8.33141 11.9397 8.33317 11.943 8.33469C11.9536 8.33964 11.9589 8.34209 11.9646 8.34399C11.9723 8.34658 11.9797 8.35018 11.9865 8.35471C12.0297 8.38349 12.057 8.42465 12.0738 8.44989C12.0747 8.45119 12.0755 8.45245 12.0763 8.45366C12.0772 8.45506 12.0781 8.45649 12.079 8.45794C12.5848 9.31476 13.1469 10.1316 13.7578 10.9084C13.9375 9.94716 14.0531 8.97036 14.1045 7.98546C14.1047 7.98271 14.105 7.97997 14.1053 7.97725C14.1173 7.89328 14.154 7.81994 14.214 7.75996C14.2824 7.69164 14.3734 7.66876 14.4536 7.66876C14.5408 7.66876 14.6241 7.70467 14.6742 7.74224C14.6804 7.74689 14.686 7.7523 14.6908 7.75834C14.7381 7.81741 14.7753 7.90139 14.7753 7.99024C14.7753 7.99185 14.7753 7.99346 14.7752 7.99507C14.7114 9.20609 14.5576 10.3995 14.3049 11.5751C14.5306 11.8396 14.7632 12.0975 14.9972 12.3557C15.3009 12.0324 15.5904 11.7014 15.8723 11.3626C15.683 10.251 15.5747 9.12171 15.5473 7.99246L15.5473 7.99024C15.5473 7.91003 15.5702 7.8191 15.6385 7.75078C15.6981 7.69125 15.7756 7.65039 15.869 7.65039C15.9117 7.65039 15.9598 7.66344 15.9899 7.67347C15.9977 7.67606 16.005 7.67966 16.0118 7.68419L16.0155 7.68661C16.0382 7.7017 16.0687 7.72206 16.0929 7.74457C16.1356 7.77561 16.1629 7.81861 16.1767 7.86016C16.1866 7.88991 16.1995 7.93724 16.1998 7.97956C16.2253 8.87729 16.3057 9.76742 16.4338 10.6573C16.9784 9.94921 17.4831 9.21041 17.9407 8.44817C17.9414 8.44692 17.9422 8.44569 17.943 8.44448C17.9438 8.44327 17.9447 8.44201 17.9455 8.4407C17.9613 8.417 17.9864 8.37924 18.0252 8.35088C18.0662 8.31258 18.1081 8.29863 18.1352 8.28962L18.1375 8.28888C18.1468 8.28576 18.1566 8.28417 18.1665 8.28417C18.1718 8.28417 18.1751 8.28381 18.1807 8.28321C18.186 8.28264 18.1932 8.28187 18.2059 8.28096C18.2231 8.27973 18.2528 8.27833 18.2834 8.28759C18.3211 8.29712 18.3584 8.30885 18.3966 8.33325C18.4787 8.37652 18.5265 8.45589 18.549 8.53449C18.5499 8.53782 18.5507 8.54121 18.5513 8.54462C18.5635 8.61794 18.5519 8.71119 18.5152 8.78451C18.5142 8.78668 18.513 8.78882 18.5117 8.7909C17.9288 9.7559 17.2827 10.6761 16.5736 11.5426C16.6482 11.9456 16.7301 12.3482 16.8194 12.7438C17.203 12.6344 17.5872 12.5045 17.9737 12.373C18.34 11.236 18.7873 10.1261 19.3157 9.06086L19.3158 9.06057C19.3606 8.97101 19.4468 8.93346 19.5068 8.91348C19.5914 8.88531 19.6722 8.90175 19.7424 8.93683C19.7482 8.93972 19.7537 8.94322 19.7587 8.94726C19.8074 8.98621 19.8716 9.04612 19.8988 9.12772C19.8992 9.12898 19.8996 9.13025 19.9 9.13153C19.9226 9.21085 19.9239 9.29429 19.8988 9.36951C19.8975 9.3733 19.896 9.37699 19.8943 9.38058C19.4652 10.264 19.0845 11.1631 18.7597 12.0855C19.6011 11.7555 20.4189 11.3848 21.2205 10.9586C21.2234 10.9571 21.2264 10.9557 21.2295 10.9544C21.2991 10.9266 21.3862 10.9286 21.4581 10.9526C21.5335 10.9777 21.5989 11.0289 21.6384 11.1058C21.6774 11.1728 21.6878 11.2579 21.6761 11.3293C21.6622 11.4244 21.6071 11.489 21.5508 11.534C21.5465 11.5375 21.5418 11.5405 21.5369 11.5432C20.5537 12.0709 19.5346 12.5268 18.4886 12.9108C18.3665 13.2965 18.2585 13.6828 18.1513 14.0773C18.5554 14.174 18.9603 14.2564 19.373 14.3312C20.24 13.6315 21.1605 12.9949 22.1165 12.4126C22.1187 12.4112 22.1209 12.41 22.1232 12.4088C22.1968 12.3721 22.2847 12.359 22.3734 12.3843C22.4612 12.4094 22.5243 12.4609 22.5716 12.5319C22.5737 12.5351 22.5757 12.5384 22.5774 12.5418C22.6076 12.6022 22.6378 12.6814 22.6128 12.7765C22.5974 12.8705 22.5411 12.9351 22.4726 12.9807C22.4714 12.9816 22.4702 12.9823 22.4689 12.9831C21.7081 13.4393 20.9782 13.9426 20.2793 14.4785C21.1608 14.5976 22.049 14.6686 22.9368 14.6771C22.9779 14.6772 23.0239 14.6893 23.0541 14.6991C23.1051 14.7126 23.1499 14.7399 23.1818 14.7834C23.2135 14.8164 23.2391 14.8537 23.2532 14.896C23.254 14.8983 23.2546 14.9005 23.2552 14.9028C23.2563 14.9073 23.2576 14.9122 23.259 14.9173C23.2665 14.9456 23.2763 14.9827 23.2763 15.0261C23.2763 15.0758 23.2644 15.1223 23.2538 15.1544ZM17.6688 17.1526C17.6715 17.1517 17.6742 17.1509 17.677 17.1503C17.7516 17.1329 17.8259 17.1156 17.9001 17.0983C18.1563 17.0384 18.4101 16.9792 18.6632 16.9233C18.3804 16.6815 18.1047 16.4273 17.836 16.1667L17.835 16.1657C17.7755 16.1062 17.7346 16.0288 17.7346 15.9354C17.7346 15.8421 17.7755 15.7647 17.835 15.7052C17.8357 15.7045 17.8363 15.7039 17.837 15.7033C18.1142 15.4421 18.3916 15.1874 18.6809 14.9336C18.3451 14.8665 18.0098 14.7873 17.675 14.7018C17.6729 14.7012 17.6708 14.7006 17.6688 14.6999C17.6292 14.6867 17.5927 14.6623 17.5678 14.6457L17.5641 14.6433C17.5209 14.6145 17.4936 14.5733 17.4768 14.5481C17.476 14.5468 17.4751 14.5455 17.4743 14.5443C17.4698 14.5375 17.4662 14.5302 17.4636 14.5224C17.4626 14.5195 17.4611 14.5156 17.4581 14.5087C17.4556 14.5028 17.4514 14.4934 17.4478 14.4839C17.4409 14.4661 17.4334 14.4423 17.4317 14.4136C17.422 14.369 17.421 14.3198 17.4346 14.2758C17.522 13.9109 17.6164 13.5452 17.7237 13.185C17.3673 13.3021 17.015 13.4116 16.6554 13.5074C16.6477 13.5095 16.6397 13.5105 16.6317 13.5105H16.5766C16.5164 13.5105 16.4286 13.5017 16.3646 13.4377C16.3631 13.4363 16.3616 13.4348 16.36 13.4332C16.3265 13.3998 16.2721 13.3457 16.2569 13.2633C16.171 12.9197 16.0918 12.5698 16.0192 12.2246C15.7599 12.5235 15.4891 12.8101 15.2198 13.095L15.2189 13.096C15.2183 13.0966 15.2177 13.0972 15.2171 13.0979C15.1575 13.1574 15.0801 13.1982 14.9867 13.1982C14.9044 13.1982 14.8174 13.1589 14.7563 13.0979C14.7555 13.0971 14.7548 13.0964 14.7541 13.0956C14.5364 12.8625 14.3254 12.6295 14.1154 12.391C14.0434 12.6839 13.9651 12.9768 13.8802 13.2697C13.8794 13.2726 13.8784 13.2755 13.8773 13.2783C13.8557 13.3321 13.8183 13.3998 13.7473 13.4423C13.6932 13.4748 13.6307 13.5014 13.553 13.5014H13.4887C13.4797 13.5014 13.4708 13.5001 13.4623 13.4975C13.0587 13.3765 12.6547 13.2483 12.2504 13.1067C12.3672 13.501 12.4707 13.8959 12.5671 14.2974C12.5688 14.3044 12.5696 14.3116 12.5696 14.3188C12.5696 14.3274 12.5702 14.3327 12.5709 14.3408C12.5715 14.3462 12.5721 14.353 12.5729 14.3628C12.5742 14.3812 12.5747 14.4041 12.5694 14.4307C12.5676 14.4813 12.5529 14.5233 12.5266 14.5627C12.5258 14.5639 12.525 14.5652 12.5241 14.5665C12.5074 14.5917 12.48 14.6329 12.4368 14.6616C12.3989 14.6869 12.3613 14.6994 12.3348 14.7082L12.3322 14.7091C12.3296 14.7099 12.327 14.7107 12.3244 14.7113C11.9987 14.7888 11.6651 14.8666 11.33 14.9335C11.6136 15.1801 11.8959 15.434 12.1649 15.695L12.1659 15.696C12.2255 15.7555 12.2664 15.8329 12.2664 15.9263C12.2664 16.0196 12.2255 16.097 12.1659 16.1565L12.1649 16.1575C11.8951 16.4193 11.6187 16.6671 11.3363 16.9124C11.6661 16.9823 11.9917 17.0543 12.3175 17.1394C12.3451 17.1419 12.3684 17.1513 12.3856 17.1599C12.4046 17.1694 12.4225 17.1813 12.4352 17.1898L12.4368 17.1909C12.48 17.2197 12.5074 17.2608 12.5241 17.286C12.525 17.2873 12.5258 17.2886 12.5266 17.2898C12.5312 17.2966 12.5348 17.304 12.5374 17.3117L12.5376 17.3124C12.5467 17.3399 12.5568 17.3702 12.5669 17.4103C12.5787 17.4574 12.5809 17.5108 12.5664 17.5581C12.4782 17.9342 12.3763 18.31 12.2667 18.6852C12.6166 18.5684 12.9683 18.4591 13.3271 18.3634C13.33 18.3627 13.3328 18.3621 13.3357 18.3616C13.4104 18.3491 13.4944 18.3615 13.5665 18.3976C13.5699 18.3993 13.5732 18.4012 13.5764 18.4033C13.6474 18.4506 13.699 18.5137 13.7241 18.6015C13.7243 18.6023 13.7245 18.6031 13.7247 18.6039C13.811 18.9408 13.8905 19.2907 13.9633 19.6366C14.2205 19.338 14.4843 19.0515 14.7544 18.7657C14.7547 18.7655 14.7549 18.7652 14.7552 18.765C14.7555 18.7646 14.7559 18.7642 14.7563 18.7638C14.8158 18.7043 14.8933 18.6634 14.9867 18.6634C15.0801 18.6634 15.1575 18.7043 15.2171 18.7638L15.2182 18.765C15.4365 18.9909 15.648 19.2232 15.8581 19.4617C15.9301 19.1708 16.0084 18.8844 16.0931 18.592C16.0935 18.5908 16.0939 18.5896 16.0942 18.5885C16.1074 18.549 16.1319 18.5124 16.1484 18.4876L16.1509 18.4839C16.1797 18.4407 16.2209 18.4134 16.2461 18.3966C16.2474 18.3958 16.2487 18.3949 16.2499 18.3941C16.2942 18.3646 16.3491 18.3511 16.3928 18.3511C16.394 18.3511 16.3954 18.3511 16.3968 18.3511C16.4214 18.3511 16.4702 18.351 16.512 18.3645C16.9263 18.4863 17.3403 18.6223 17.7539 18.7661C17.6415 18.3704 17.5307 17.9675 17.4338 17.5643C17.4322 17.5573 17.4313 17.5501 17.4313 17.5428C17.4313 17.5343 17.4308 17.529 17.43 17.5209C17.4295 17.5155 17.4288 17.5087 17.4281 17.4989C17.4268 17.4805 17.4263 17.4576 17.4315 17.431C17.4333 17.3804 17.448 17.3384 17.4743 17.299C17.4751 17.2978 17.476 17.2965 17.4768 17.2952C17.4936 17.27 17.5209 17.2288 17.5641 17.2001C17.602 17.1748 17.6396 17.1623 17.6662 17.1535L17.6688 17.1526Z" fill="black"/>
<path d="M32.9997 12.4648L31.7972 17.5326H31.7339L30.441 12.4648H29.2565L27.9636 17.5234H27.9003L26.6887 12.4648H25.3867L27.2764 19.3519H28.4789L29.8261 14.5161H29.8804L31.2185 19.3519H32.4211L34.3108 12.4648H32.9997Z" fill="black"/>
<path d="M37.846 14.4975C37.6471 14.3676 37.4301 14.2655 37.186 14.2098C36.9419 14.1541 36.7068 14.1263 36.4627 14.1263C36.1101 14.1263 35.7936 14.1819 35.5043 14.284C35.2149 14.3861 34.9708 14.5439 34.7629 14.7574C34.5639 14.9709 34.4193 15.2308 34.3289 15.5464L35.4319 15.7041C35.4952 15.5278 35.6037 15.37 35.7755 15.2401C35.9473 15.1101 36.1733 15.0451 36.4627 15.0451C36.7339 15.0451 36.9509 15.1101 37.0956 15.2493C37.2402 15.3886 37.3126 15.5835 37.3126 15.8341V15.8527C37.3126 15.9733 37.2674 16.0568 37.186 16.1125C37.1046 16.1682 36.969 16.2054 36.7882 16.2332C36.6073 16.261 36.3632 16.2889 36.0739 16.3167C35.8298 16.3446 35.5947 16.391 35.3596 16.4467C35.1336 16.5024 34.9256 16.5952 34.7448 16.7066C34.5639 16.8179 34.4193 16.9757 34.3198 17.1614C34.2113 17.3563 34.1661 17.5883 34.1661 17.8853C34.1661 18.2195 34.2384 18.5072 34.3831 18.7393C34.5278 18.9713 34.7357 19.1476 34.9889 19.2683C35.2421 19.389 35.5314 19.4447 35.8478 19.4447C36.11 19.4447 36.3361 19.4075 36.535 19.3333C36.7339 19.259 36.8967 19.1569 37.0233 19.0363C37.1498 18.9063 37.2583 18.7764 37.3307 18.6372H37.3668V19.3518H38.5061V15.8991C38.5061 15.5556 38.4428 15.2679 38.3252 15.0451C38.1987 14.8131 38.045 14.6275 37.846 14.4975ZM37.3216 17.4955C37.3216 17.6904 37.2764 17.8575 37.177 18.0246C37.0865 18.1824 36.9509 18.3123 36.7701 18.4144C36.5983 18.5072 36.3903 18.5629 36.1553 18.5629C35.9111 18.5629 35.7032 18.5072 35.5495 18.3958C35.3867 18.2845 35.3144 18.1081 35.3144 17.8853C35.3144 17.7276 35.3506 17.5976 35.4319 17.5048C35.5133 17.4027 35.6218 17.3284 35.7665 17.2727C35.9021 17.2171 36.0648 17.1799 36.2457 17.1521C36.327 17.1428 36.4175 17.1242 36.526 17.115C36.6345 17.0964 36.743 17.0778 36.8515 17.0593C36.96 17.0407 37.0594 17.0129 37.1498 16.985C37.2402 16.9572 37.3035 16.9293 37.3397 16.9015V17.4955H37.3216Z" fill="black"/>
<path d="M43.9762 14.1912H42.5929L40.7846 16.2611H40.7032V12.4648H39.5097V19.3519H40.7032V17.6162L41.1281 17.1428L42.6742 19.3519H44.0847L42.0233 16.4188L43.9762 14.1912Z" fill="black"/>
<path d="M47.7827 14.1912V17.1799C47.7827 17.4398 47.7285 17.6626 47.62 17.839C47.5115 18.0153 47.3849 18.1452 47.2131 18.2288C47.0504 18.3123 46.8786 18.3587 46.7068 18.3587C46.4265 18.3587 46.1914 18.2659 46.0196 18.071C45.8478 17.8761 45.7574 17.6162 45.7574 17.2913V14.1912H44.573V17.477C44.573 17.8854 44.6453 18.2381 44.79 18.5351C44.9346 18.8228 45.1245 19.0456 45.3777 19.1941C45.6308 19.3426 45.9202 19.4168 46.2547 19.4168C46.6345 19.4168 46.9509 19.324 47.2041 19.1384C47.4663 18.9528 47.6471 18.7207 47.7647 18.433H47.8189V19.3519H48.9672V14.1912H47.7827Z" fill="black"/>
</svg>
