<svg width="80" height="80" viewBox="0 0 80 80" fill="none" xmlns="http://www.w3.org/2000/svg">
<path fill-rule="evenodd" clip-rule="evenodd" d="M79.8912 36.2694C79.7653 36.6975 79.4176 37.1026 79.0437 37.2894C78.9045 37.359 78.7278 37.4129 78.488 37.4609C78.457 37.4671 78.4254 37.4699 78.3938 37.4694C72.8881 37.3814 67.381 36.902 61.9585 35.9878C60.3642 37.3067 58.8074 38.6613 57.2876 40.0845C58.8034 41.4688 60.3245 42.7865 61.9159 44.1025C67.3775 43.2307 72.8864 42.7078 78.4418 42.6637L78.4453 42.6637C78.6518 42.6637 78.8844 42.7268 79.03 42.7753C80.1576 43.1509 80.1207 44.8362 79.398 45.58C79.1226 45.9098 78.6859 46.0809 78.2723 46.0821C73.9367 46.164 69.6402 46.4725 65.3475 47.0424C68.766 49.6324 72.3349 52.0681 76.0543 54.3148C76.0599 54.3182 76.0655 54.3218 76.0709 54.3254L76.0892 54.3375C76.2038 54.4136 76.3865 54.5348 76.5236 54.7222C76.7088 54.9204 76.7763 55.1231 76.8198 55.254L76.8234 55.2647C76.8385 55.31 76.8462 55.3574 76.8462 55.4051C76.8462 55.4305 76.8479 55.4465 76.8508 55.4737C76.8536 55.499 76.8573 55.534 76.8617 55.5955C76.8677 55.6784 76.8744 55.8218 76.8296 55.9699C76.7817 56.1595 76.7221 56.347 76.5939 56.5393C76.5777 56.5636 76.5591 56.5863 76.5384 56.6069C76.5124 56.6329 76.4853 56.6622 76.4498 56.7005L76.4493 56.7011C76.4161 56.737 76.3759 56.7804 76.333 56.8233C76.2481 56.9082 76.1306 57.0138 75.9788 57.0896C75.739 57.2095 75.4933 57.2697 75.2027 57.2697C74.9352 57.2697 74.614 57.2185 74.3351 57.0186C69.629 54.2042 65.1392 51.0858 60.9087 47.663C59.0026 47.9854 57.0947 48.3783 55.1837 48.8102C55.7522 50.9413 56.3587 53.0667 57.0363 55.1548C62.0053 57.0556 66.7998 59.3026 71.4625 61.8525C71.4739 61.8587 71.4849 61.8654 71.4957 61.8726C71.5016 61.8765 71.5077 61.8805 71.514 61.8847C71.6296 61.9614 71.8145 62.0841 71.9521 62.2745C72.044 62.3801 72.0955 62.5005 72.1248 62.5765C72.1486 62.6385 72.1735 62.7171 72.1901 62.7694C72.1957 62.7871 72.2004 62.8019 72.2038 62.8119C72.2188 62.8572 72.2265 62.9046 72.2265 62.9523C72.2265 62.9777 72.2283 62.9937 72.2312 63.0209C72.2339 63.0462 72.2377 63.0812 72.2421 63.1426C72.248 63.2256 72.2548 63.369 72.21 63.517C72.1639 63.6992 72.1072 63.8793 71.9892 64.0636C71.78 64.4603 71.3961 64.6912 71.016 64.7998C70.9966 64.8053 70.9768 64.8096 70.9568 64.8124C70.565 64.8683 70.1617 64.8141 69.8069 64.6368C69.8018 64.6342 69.7967 64.6316 69.7916 64.6288C66.0605 62.5799 62.2527 60.7584 58.368 59.1293C59.885 63.3218 61.6291 67.4678 63.5647 71.4601C63.5677 71.4664 63.5706 71.4727 63.5733 71.4791C63.5747 71.4824 63.576 71.4856 63.5773 71.4888C63.6803 71.7462 63.7424 71.9809 63.7424 72.2753C63.7424 72.566 63.6084 72.8699 63.5178 73.0509C63.5059 73.0747 63.4918 73.0974 63.4758 73.1188C63.4696 73.1271 63.4631 73.1358 63.4564 73.1448C63.3385 73.3026 63.149 73.5564 62.8749 73.6934C62.6352 73.8132 62.3894 73.8735 62.0988 73.8735C61.8592 73.8735 61.5329 73.8155 61.2549 73.6071C61.0124 73.4253 60.8381 73.1896 60.7243 72.9621L60.7236 72.9607C58.258 67.9883 56.1404 62.799 54.4134 57.5213C52.2727 56.7194 50.0934 55.9893 47.8748 55.2975C47.4207 56.8955 47.0316 58.5249 46.6771 60.1274C50.4101 64.6213 53.7954 69.3758 56.8329 74.3907C57.0808 74.7677 57.1402 75.2103 57.0179 75.6381C57.0161 75.6442 57.0142 75.6504 57.0122 75.6565C56.8969 76.0021 56.6647 76.3556 56.3041 76.5958C56.1355 76.7082 55.9145 76.7758 55.8023 76.8101C55.7825 76.8161 55.7661 76.8211 55.754 76.8252C55.5296 76.8999 55.2533 76.8999 55.0289 76.8252C54.8378 76.7615 54.6611 76.6435 54.5412 76.5634L54.5232 76.5514C54.3144 76.4123 54.1822 76.2133 54.1012 76.0914L54.089 76.0731C54.0871 76.0703 54.0853 76.0674 54.0834 76.0645C54.0815 76.0614 54.0796 76.0584 54.0777 76.0553C51.5885 71.9088 48.8664 67.9577 45.8753 64.2017C45.0002 68.888 44.4022 73.6105 44.1532 78.3699C44.1496 78.8155 43.953 79.1854 43.6678 79.4704C43.3799 79.7581 43.0056 79.9556 42.5541 79.9556C42.3477 79.9556 42.115 79.8925 41.9695 79.844C41.7569 79.7732 41.5365 79.6299 41.385 79.4028L41.373 79.3848C41.2929 79.265 41.1748 79.0883 41.1111 78.8973C41.0431 78.6935 41.0436 78.4527 41.0438 78.3322L41.0439 78.313C41.0439 78.3101 41.0439 78.3071 41.044 78.3042C41.044 78.3004 41.0441 78.2966 41.0443 78.2928C41.3087 72.4787 42.0953 66.6673 43.2743 60.9875C42.1805 59.6994 41.0924 58.4236 39.9438 57.2121C38.5057 58.8152 37.1052 60.4193 35.7416 62.0577C36.6568 67.4303 37.1807 72.8874 37.3568 78.3431C37.3569 78.3478 37.357 78.3526 37.357 78.3574C37.357 78.5566 37.2982 78.7802 37.2505 78.9263C37.1882 79.1624 37.0717 79.3488 36.9459 79.4838C36.7958 79.6898 36.5879 79.8215 36.387 79.8884C36.2414 79.9369 36.0088 80 35.8023 80C35.5521 80 35.3613 79.9363 35.2282 79.892L35.2177 79.8884C35.1802 79.8759 35.1446 79.8585 35.1117 79.8366L35.0942 79.8249C34.9845 79.752 34.8367 79.6536 34.7198 79.5448C34.5136 79.3947 34.3818 79.1869 34.3148 78.9861C34.2669 78.8423 34.2047 78.6135 34.2032 78.409C34.0801 74.0695 33.6915 69.729 33.0723 65.4224C30.4402 68.8448 28.0012 72.4181 25.7901 76.1422C25.7819 76.1559 25.7731 76.1692 25.7635 76.182C25.7572 76.1904 25.7507 76.1991 25.744 76.2081C25.6316 76.3586 25.454 76.5965 25.2 76.737C24.9382 76.9228 24.6702 76.9811 24.3864 76.9811C24.15 76.9811 23.8292 76.9247 23.5537 76.723C23.5506 76.721 23.5475 76.719 23.5444 76.7169C23.4287 76.6401 23.2438 76.5174 23.1062 76.3271C23.0143 76.2215 22.9628 76.1011 22.9335 76.0251C22.9097 75.9631 22.8848 75.8845 22.8682 75.8322C22.8626 75.8144 22.8579 75.7997 22.8546 75.7897C22.8395 75.7444 22.8318 75.697 22.8318 75.6493V75.2053C22.8318 74.9419 22.9012 74.7264 23.0327 74.5256C25.8066 69.8619 28.9283 65.3719 32.3549 61.1412C32.0327 59.2382 31.6391 57.3349 31.1742 55.4314C29.3092 55.9925 27.4465 56.5909 25.5854 57.2586C23.8164 62.6658 21.6985 67.9868 19.1882 73.0926C19.1849 73.0993 19.1815 73.1059 19.1779 73.1124C19.1755 73.1167 19.173 73.121 19.1705 73.1252C19.0033 73.4036 18.8283 73.5781 18.6119 73.7403C18.5997 73.7494 18.587 73.758 18.5739 73.7658C18.2832 73.9402 18.0265 74.0067 17.7235 74.0067C17.4691 74.0067 17.2238 73.9425 16.9918 73.8266C16.9753 73.8184 16.9594 73.8091 16.9441 73.7989C16.9382 73.795 16.9321 73.791 16.9258 73.7868C16.8106 73.7103 16.6266 73.5883 16.4893 73.3992C16.3456 73.2391 16.2413 73.0087 16.1916 72.8596C16.188 72.8488 16.1848 72.8379 16.1821 72.8269C16.1243 72.596 16.1243 72.4162 16.1244 72.243V72.2309C16.1244 72.0294 16.1838 71.7781 16.3137 71.5695C18.3377 67.3975 20.1299 63.1105 21.6544 58.7446C17.6333 60.3414 13.6951 62.1673 9.91082 64.222C9.70018 64.356 9.44406 64.4173 9.23931 64.4173C9.23331 64.4173 9.2269 64.4173 9.2201 64.4173C9.09953 64.4176 8.85856 64.4181 8.65465 64.3501C8.49472 64.2969 8.24125 64.1808 8.08124 64.0209C7.96054 63.9003 7.85059 63.7352 7.77097 63.6157L7.75922 63.5981C7.61649 63.3841 7.55136 63.1188 7.55136 62.9079C7.55136 62.9019 7.55135 62.8955 7.55133 62.8887C7.55109 62.7682 7.5506 62.5274 7.61858 62.3235C7.68225 62.1326 7.80035 61.9559 7.88046 61.8361C7.88457 61.83 7.88858 61.824 7.89248 61.8181C8.03171 61.6094 8.2308 61.4773 8.35283 61.3963C8.35911 61.3921 8.36518 61.3881 8.37104 61.3842C8.3814 61.3773 8.39205 61.3708 8.40295 61.3648C13.1134 58.7689 17.9964 56.5644 23.0089 54.7081C23.6416 52.754 24.2041 50.7631 24.7291 48.7662C22.8176 48.3342 20.9091 47.9411 19.0025 47.6186C14.7719 51.0414 10.2821 54.1598 5.57607 56.9742C5.29719 57.1741 4.97594 57.2253 4.7085 57.2253C4.47009 57.2253 4.17871 57.1683 3.93239 57.0452C3.72231 56.9403 3.45514 56.7586 3.30199 56.4713C3.19862 56.3062 3.13559 56.1002 3.10285 55.9933C3.09681 55.9735 3.0918 55.9572 3.08776 55.945C3.01295 55.7207 3.01295 55.4446 3.08776 55.2203C3.15144 55.0294 3.26955 54.8527 3.34966 54.7329L3.36167 54.7149C3.50088 54.5062 3.69995 54.3741 3.82197 54.2931C3.82827 54.2889 3.83436 54.2849 3.84022 54.281C3.84569 54.2774 3.85123 54.2738 3.85685 54.2704C7.58229 52.0201 11.1928 49.5813 14.6186 46.9544C10.3138 46.3778 5.97645 46.0343 1.64121 45.9933C1.44246 45.9929 1.21987 45.9343 1.07423 45.8868C0.827847 45.8218 0.611289 45.6897 0.456994 45.4791C0.303911 45.3201 0.179823 45.1395 0.111634 44.9351L0.10811 44.9245C0.0636991 44.7915 0 44.6008 0 44.3507C0 43.8816 0.177437 43.4567 0.485461 43.1489C0.787414 42.8471 1.21 42.6637 1.64353 42.6637H1.64706C7.19971 42.7078 12.7526 43.1869 18.2197 44.1014C19.7775 42.8213 21.328 41.5085 22.8095 40.1286C21.325 38.7061 19.7691 37.3511 18.1729 36.0307C12.7113 36.9024 7.20239 37.4254 1.64706 37.4695L1.64353 37.4695C1.43707 37.4695 1.20443 37.4064 1.05887 37.3579C0.858629 37.2912 0.651393 37.1601 0.501383 36.9552C0.348314 36.7962 0.224238 36.6156 0.156054 36.4112C0.152459 36.4004 0.149279 36.3895 0.146522 36.3785C0.141036 36.3566 0.134834 36.3332 0.128265 36.3084C0.0919562 36.1715 0.0444198 35.9922 0.0444198 35.7825C0.0444198 35.3503 0.22655 34.9532 0.429961 34.6483C0.446187 34.624 0.464777 34.6013 0.485461 34.5806C0.772859 34.2934 1.14649 34.0961 1.59698 34.0954C5.97802 34.0544 10.3211 33.7483 14.6616 33.177C11.2347 30.5436 7.62451 28.0674 3.90127 25.8183C3.88465 25.8083 3.86871 25.7972 3.85355 25.7851C3.55962 25.5501 3.33485 25.2098 3.22102 24.8685C3.08484 24.4602 3.15965 24.0078 3.40609 23.6383C3.63485 23.2954 3.93997 23.0462 4.36437 22.925C4.7929 22.8026 5.21798 22.8659 5.57344 23.0435C5.58434 23.049 5.595 23.0549 5.60541 23.0612C10.3169 25.9217 14.8111 29.0866 19.0877 32.5557C21.0016 32.1969 22.9054 31.8376 24.7742 31.4126C24.2048 29.2422 23.597 27.108 22.9173 24.9759C17.9521 23.0343 13.1179 20.7896 8.50027 18.2846C8.09262 18.0777 7.85633 17.6884 7.74613 17.3029C7.74058 17.2835 7.73636 17.2637 7.7335 17.2437C7.68517 16.9055 7.66496 16.4544 7.9369 16.0467C7.94081 16.0409 7.94486 16.0348 7.94904 16.0285C8.02539 15.9136 8.14715 15.7303 8.33568 15.5931C8.53224 15.4142 8.77612 15.3394 8.88604 15.3057C8.90005 15.3014 8.91188 15.2978 8.92116 15.2947C8.93195 15.2911 8.94287 15.2879 8.9539 15.2852C9.18489 15.2275 9.36478 15.2275 9.53815 15.2275H9.55025C9.81121 15.2275 10.0252 15.2956 10.2244 15.4245C13.9146 17.4728 17.7178 19.3308 21.634 20.9635C20.1213 16.7675 18.415 12.6204 16.4798 8.62866C16.4768 8.62249 16.4739 8.61625 16.4712 8.60995C16.3091 8.23195 16.2396 7.81437 16.3636 7.38081C16.4828 6.96361 16.7751 6.60153 17.1458 6.40747C17.3555 6.27566 17.6092 6.21532 17.8123 6.21532C17.8183 6.21532 17.8247 6.2153 17.8315 6.21529C17.9521 6.21504 18.1931 6.21455 18.397 6.28249C18.588 6.34614 18.7648 6.46419 18.8847 6.54426C18.8909 6.54836 18.8969 6.55236 18.9027 6.55625C18.927 6.57246 18.9497 6.59104 18.9704 6.61172C19.0911 6.73237 19.2011 6.89744 19.2807 7.01697C19.2847 7.02294 19.2886 7.0288 19.2924 7.03454C19.3035 7.05117 19.3135 7.06853 19.3222 7.08651C21.7431 12.0576 23.8601 17.2465 25.5871 22.5247C27.6809 23.3241 29.813 24.052 31.9842 24.7419C32.4134 23.1351 32.8352 21.5031 33.1906 19.8719C29.5013 15.379 26.1161 10.6242 23.1214 5.60731C23.0132 5.44018 22.9477 5.22623 22.9141 5.11648C22.908 5.09674 22.903 5.08037 22.899 5.06825C22.8311 4.86471 22.8248 4.61853 22.8801 4.40709C22.8934 4.27704 22.9379 4.16689 22.9786 4.08559C23.0245 3.9938 23.0823 3.90725 23.1231 3.84608L23.1285 3.83809C23.2677 3.62939 23.4667 3.4973 23.5888 3.41633C23.5951 3.41215 23.6011 3.40811 23.607 3.4042C23.7757 3.29179 23.9967 3.22422 24.1089 3.18992C24.1286 3.18388 24.145 3.17887 24.1571 3.17484C24.3759 3.10195 24.6439 3.10011 24.8652 3.16931C24.9884 3.20164 25.091 3.24679 25.1667 3.28171C25.1882 3.2916 25.2064 3.30009 25.2221 3.30744C25.2734 3.33136 25.2989 3.34323 25.3265 3.35242C25.3639 3.36489 25.3996 3.38231 25.4324 3.4042C25.6412 3.54333 25.7734 3.74228 25.8544 3.86424C25.8586 3.87053 25.8626 3.87662 25.8665 3.88249C25.8711 3.88926 25.8754 3.89615 25.8795 3.90315C28.3242 8.04446 31.041 11.9924 33.9937 15.7469C34.8625 11.101 35.4212 6.37983 35.6697 1.61949C35.6704 1.60622 35.6717 1.59299 35.6735 1.57984C35.7315 1.17398 35.9089 0.819485 36.199 0.529586C36.5294 0.199366 36.9691 0.0887902 37.357 0.0887902C37.7784 0.0887902 38.1808 0.26236 38.4231 0.443951C38.4531 0.466405 38.48 0.492555 38.5034 0.521778C38.7319 0.807256 38.9117 1.21315 38.9117 1.64262C38.9117 1.6504 38.9115 1.65818 38.9111 1.66595C38.6029 7.51922 37.8597 13.2871 36.6382 18.9693C37.7289 20.2477 38.8532 21.4942 39.9844 22.7424C41.4522 21.1796 42.8511 19.5798 44.214 17.9423C43.2988 12.5696 42.7752 7.11138 42.6431 1.65336L42.643 1.64262C42.643 1.25492 42.7536 0.815412 43.084 0.485191C43.3719 0.197497 43.7462 0 44.1977 0C44.4041 0 44.6368 0.0630801 44.7823 0.111572C44.8198 0.12405 44.8554 0.141464 44.8883 0.163352L44.9059 0.175063C45.0155 0.248002 45.1633 0.346402 45.2802 0.455207C45.4864 0.605249 45.6182 0.813083 45.6851 1.01388C45.7331 1.15766 45.7953 1.38645 45.7967 1.59097C45.9198 5.93001 46.3084 10.2323 46.9277 14.5333C49.5598 11.1109 51.9993 7.54009 54.211 3.85594C54.2146 3.8499 54.2184 3.84395 54.2223 3.83809C54.2262 3.83223 54.2303 3.82614 54.2344 3.81985C54.3105 3.70528 54.4318 3.52275 54.6193 3.3857C54.8176 3.20057 55.0204 3.13315 55.1514 3.08962L55.1621 3.08605C55.2074 3.07096 55.2549 3.06326 55.3026 3.06326C55.3281 3.06326 55.3441 3.06154 55.3713 3.05862C55.3966 3.05589 55.4316 3.05213 55.4931 3.04774C55.5761 3.04182 55.7196 3.03503 55.8676 3.07981C56.0499 3.12586 56.2302 3.18256 56.4146 3.30051C56.8115 3.50961 57.0425 3.89323 57.1511 4.27315C57.1558 4.28926 57.1594 4.30561 57.1622 4.32213C57.2213 4.67648 57.1654 5.12722 56.9881 5.48156C56.9828 5.49209 56.9771 5.50241 56.971 5.51248C54.1534 10.1766 51.031 14.6243 47.6036 18.8124C47.964 20.7601 48.36 22.706 48.7915 24.6183C50.6457 24.0893 52.5025 23.4614 54.3705 22.8259C56.1412 17.3306 58.3032 11.9658 60.8569 6.81725L60.8576 6.81589C61.0741 6.38298 61.4908 6.20148 61.7807 6.10491C62.1893 5.96877 62.5801 6.04823 62.9194 6.21779C62.9473 6.23177 62.9738 6.24867 62.9982 6.2682C63.2337 6.45648 63.5436 6.74602 63.6752 7.14041C63.6772 7.14651 63.6791 7.15265 63.6809 7.15884C63.7905 7.54223 63.7964 7.94552 63.6752 8.30909C63.6691 8.32737 63.6618 8.34524 63.6534 8.36258C61.5796 12.6322 59.7396 16.978 58.1695 21.4364C62.2364 19.8413 66.1889 18.0496 70.0635 15.9898C70.0776 15.9823 70.0922 15.9756 70.1071 15.9696C70.4433 15.8352 70.8642 15.8447 71.2121 15.9606C71.5765 16.082 71.8923 16.3295 72.0832 16.7011C72.2717 17.0248 72.3222 17.4362 72.2658 17.7816C72.1984 18.241 71.9321 18.5531 71.6601 18.7706C71.639 18.7875 71.6165 18.8023 71.5927 18.8151C66.8406 21.3658 61.9151 23.5691 56.8593 25.4252C56.2692 27.2896 55.7474 29.1569 55.229 31.0632C57.1822 31.5306 59.1393 31.9289 61.1337 32.2906C65.3245 28.9086 69.7735 25.8319 74.394 23.0171C74.4046 23.0107 74.4155 23.0047 74.4266 22.9991C74.782 22.8215 75.2071 22.7582 75.6356 22.8806C76.06 23.0018 76.3652 23.251 76.5939 23.5939C76.6041 23.6092 76.6134 23.6252 76.6216 23.6416C76.7678 23.9338 76.9137 24.3166 76.7927 24.7763C76.7183 25.2306 76.4466 25.5427 76.1154 25.7634C76.1095 25.7673 76.1035 25.7711 76.0975 25.7747C72.4202 27.9798 68.8925 30.4122 65.5144 33.0025C69.7749 33.5783 74.068 33.9213 78.3589 33.9623C78.5576 33.9627 78.7801 34.0213 78.9258 34.0688C79.1721 34.1338 79.3887 34.2659 79.543 34.4764C79.6961 34.6355 79.8202 34.8161 79.8884 35.0205C79.892 35.0313 79.8951 35.0422 79.8979 35.0533C79.9034 35.0752 79.9096 35.0986 79.9162 35.1233C79.9525 35.2603 80 35.4396 80 35.6493C80 35.8895 79.9423 36.1143 79.8912 36.2694ZM52.8967 45.9273C52.9098 45.923 52.9231 45.9192 52.9366 45.9161C53.2971 45.8323 53.6564 45.7484 54.0147 45.6648C55.2534 45.3756 56.4797 45.0893 57.7033 44.819C56.3364 43.6502 55.0036 42.4218 53.7051 41.1621L53.7003 41.1574C53.4125 40.8697 53.2149 40.4956 53.2149 40.0444C53.2149 39.5932 53.4125 39.2191 53.7003 38.9314C53.7034 38.9283 53.7065 38.9253 53.7097 38.9223C55.0495 37.6597 56.3905 36.429 57.7888 35.2023C56.1659 34.8779 54.545 34.4952 52.9271 34.0816C52.9169 34.079 52.9067 34.076 52.8967 34.0727C52.7057 34.009 52.5289 33.891 52.409 33.8109L52.391 33.7989C52.1822 33.6598 52.05 33.4608 51.969 33.3389C51.9648 33.3326 51.9608 33.3265 51.9569 33.3206C51.935 33.2878 51.9176 33.2522 51.9051 33.2148C51.9003 33.2005 51.8929 33.1819 51.8786 33.1487C51.8664 33.12 51.8464 33.0746 51.8286 33.0284C51.7955 32.9425 51.7591 32.8275 51.7508 32.6887C51.7041 32.4733 51.6994 32.2355 51.765 32.0228C52.1872 30.259 52.6434 28.4917 53.1621 26.7508C51.4399 27.3164 49.7371 27.8458 47.999 28.3091C47.9616 28.319 47.9231 28.3241 47.8845 28.3241H47.618C47.3269 28.3241 46.9026 28.2813 46.5932 27.9721C46.5861 27.965 46.5788 27.9577 46.5713 27.9502C46.409 27.7888 46.1461 27.5273 46.0728 27.1292C45.6576 25.4685 45.2747 23.777 44.9239 22.1088C43.6705 23.5535 42.3616 24.9386 41.0601 26.3158L41.0559 26.3204C41.053 26.3234 41.05 26.3265 41.047 26.3295C40.7592 26.6172 40.3848 26.8147 39.9334 26.8147C39.5354 26.8147 39.115 26.6246 38.8197 26.3295C38.8161 26.3259 38.8126 26.3222 38.8091 26.3185C37.7572 25.1921 36.7371 24.0658 35.7221 22.913C35.3744 24.3288 34.9955 25.7445 34.5855 27.1601C34.5814 27.1741 34.5767 27.1879 34.5712 27.2015C34.4671 27.4617 34.2862 27.7887 33.9431 27.9944C33.6817 28.1512 33.3796 28.2797 33.0039 28.2797H32.6929C32.6497 28.2797 32.6067 28.2734 32.5653 28.261C30.6149 27.6762 28.6623 27.0566 26.7082 26.3722C27.2724 28.2778 27.7727 30.1866 28.2387 32.1272C28.2469 32.1612 28.251 32.196 28.251 32.2309C28.251 32.2722 28.2535 32.2979 28.2573 32.3368C28.2599 32.3632 28.2631 32.3957 28.2665 32.4434C28.2728 32.5321 28.2752 32.6428 28.25 32.7716C28.2412 33.0159 28.1701 33.2191 28.0431 33.4094C28.0392 33.4153 28.0351 33.4214 28.031 33.4277C27.9499 33.5496 27.8178 33.7486 27.609 33.8877C27.4257 34.0098 27.2442 34.0702 27.1158 34.1129L27.1033 34.1171C27.0909 34.1212 27.0784 34.1248 27.0657 34.1278C25.4914 34.5024 23.8792 34.8786 22.2595 35.2016C23.6303 36.3937 24.9946 37.6209 26.2949 38.8823L26.2997 38.887C26.5875 39.1747 26.7851 39.5488 26.7851 40C26.7851 40.4512 26.5875 40.8253 26.2997 41.113L26.2949 41.1177C24.9907 42.3828 23.655 43.5808 22.2898 44.7666C23.8839 45.104 25.4574 45.4523 27.0322 45.8634C27.1656 45.8756 27.2784 45.9211 27.3613 45.9625C27.4532 46.0084 27.5398 46.0662 27.601 46.107L27.609 46.1123C27.8178 46.2514 27.9499 46.4504 28.031 46.5723C28.0351 46.5786 28.0392 46.5847 28.0431 46.5906C28.065 46.6234 28.0824 46.659 28.0949 46.6965L28.0959 46.6995C28.1403 46.8325 28.1892 46.979 28.2377 47.1731C28.2946 47.4007 28.3056 47.6584 28.2353 47.8872C27.8092 49.7052 27.3165 51.5214 26.7867 53.3349C28.4782 52.7702 30.1776 52.242 31.9122 51.7797C31.9259 51.7761 31.9397 51.7731 31.9536 51.7707C32.3148 51.7106 32.7207 51.7706 33.0693 51.9448C33.0858 51.953 33.1017 51.9622 33.117 51.9725C33.4602 52.2011 33.7095 52.506 33.8308 52.9302C33.8319 52.9342 33.833 52.9381 33.834 52.9421C34.2508 54.5705 34.635 56.2617 34.9868 57.9335C36.2301 56.4901 37.5053 55.1056 38.8109 53.724C38.812 53.7228 38.8132 53.7216 38.8143 53.7204C38.8161 53.7186 38.8179 53.7167 38.8197 53.7149C39.1076 53.4272 39.4819 53.2297 39.9334 53.2297C40.3848 53.2297 40.7592 53.4272 41.047 53.7149L41.0525 53.7205C42.1074 54.8125 43.1296 55.9353 44.1452 57.0878C44.4931 55.6818 44.8719 54.2977 45.2813 52.8843C45.2829 52.8786 45.2847 52.873 45.2865 52.8674C45.3502 52.6764 45.4683 52.4997 45.5485 52.3799L45.5604 52.3619C45.6997 52.1532 45.8987 52.0211 46.0208 51.9402C46.027 51.936 46.0331 51.932 46.039 51.9281C46.2531 51.7854 46.5186 51.7203 46.7296 51.7203C46.7356 51.7203 46.742 51.7203 46.7488 51.7203C46.8676 51.72 47.1035 51.7196 47.3055 51.7846C49.3082 52.3735 51.3094 53.0309 53.308 53.7261C52.7651 51.8134 52.2293 49.8661 51.7613 47.9171C51.7531 47.8832 51.749 47.8484 51.749 47.8135C51.749 47.7722 51.7465 47.7465 51.7427 47.7076C51.7401 47.6812 51.7369 47.6487 51.7335 47.601C51.7272 47.5123 51.7247 47.4016 51.75 47.2728C51.7588 47.0285 51.8299 46.8253 51.9569 46.635C51.9608 46.6291 51.9648 46.623 51.969 46.6167C52.05 46.4948 52.1822 46.2958 52.391 46.1567C52.5743 46.0346 52.7558 45.9742 52.8843 45.9315L52.8967 45.9273Z" fill="white"/>
</svg>
