<svg width="192" height="192" viewBox="0 0 192 192" fill="none" xmlns="http://www.w3.org/2000/svg">
<g clip-path="url(#clip0)">
<path d="M11.7039 138.028C10.2904 138.028 8.877 137.296 8.08549 136C6.89821 133.972 7.52011 131.38 9.55545 130.197C9.83814 130.028 34.4318 115.211 53.9936 96.1689C33.6403 76.338 9.95121 62.0844 9.66852 61.9154C7.63319 60.7323 7.01128 58.1408 8.19856 56.1126C9.38584 54.0844 11.9865 53.4647 14.0219 54.6478C15.0961 55.3239 41.2728 70.9859 63.0396 93.183C64.6226 94.8168 64.6226 97.4647 63.0396 99.0985C42.2904 120.338 15.0961 136.732 13.9088 137.465C13.2304 137.803 12.4954 138.028 11.7039 138.028Z" fill="#FDB4C4"/>
<path d="M180.41 138.029C179.675 138.029 178.94 137.86 178.205 137.409C177.074 136.733 149.823 120.339 129.074 99.0429C127.491 97.4091 127.491 94.7612 129.074 93.1274C150.784 70.9302 176.961 55.2682 178.092 54.5922C180.127 53.4091 182.728 54.0288 183.915 56.057C185.102 58.0851 184.48 60.6767 182.445 61.8598C182.219 62.0288 158.473 76.226 138.12 96.1133C157.682 115.156 182.332 130.029 182.558 130.141C184.537 131.325 185.215 133.916 184.028 135.944C183.237 137.296 181.823 138.029 180.41 138.029Z" fill="#FDB4C4"/>
<path d="M95.944 64.3376C94.8698 64.3376 93.7956 63.9432 93.0041 63.1545C71.6896 42.4784 55.2373 15.3798 54.5023 14.1967C53.3151 12.1686 53.9935 9.57702 55.9723 8.39392C57.9511 7.21082 60.5518 7.83054 61.7956 9.85871C61.9652 10.1404 76.8345 34.6474 95.944 54.1404C115.845 33.8587 130.149 10.2531 130.319 9.97139C131.506 7.94322 134.107 7.3235 136.142 8.5066C138.121 9.6897 138.799 12.2812 137.612 14.3094C136.933 15.4362 121.216 41.4643 98.9405 63.1545C98.0924 63.8869 97.0182 64.3376 95.944 64.3376Z" fill="#FDB4C4"/>
<path d="M58.1773 184.282C57.4423 184.282 56.7073 184.113 55.9723 183.662C53.9935 182.479 53.3151 179.888 54.5023 177.86C55.1808 176.733 71.6896 149.578 93.0041 128.902C94.6437 127.324 97.3009 127.324 98.9405 128.902C121.216 150.536 136.933 176.62 137.612 177.747C138.799 179.775 138.177 182.367 136.142 183.55C134.163 184.733 131.506 184.113 130.319 182.085C130.149 181.86 115.902 158.198 95.944 137.916C76.8345 157.409 61.9087 181.972 61.7956 182.198C61.0041 183.55 59.5907 184.282 58.1773 184.282Z" fill="#FDB4C4"/>
<path d="M187.59 89.2951C184.876 89.2951 155.137 89.1261 125.851 81.5205C123.646 80.9571 122.289 78.7035 122.798 76.45C129.526 47.605 144.339 19.4923 145.017 18.3655C146.092 16.281 148.692 15.5486 150.728 16.6191C152.819 17.6895 153.611 20.281 152.48 22.3092C152.367 22.5909 138.968 47.943 132.07 74.3655C159.717 80.9007 187.194 80.8444 187.759 80.9007C190.077 80.9007 192 82.7599 192 85.1261C192 87.4923 190.134 89.3514 187.759 89.3514C187.703 89.2951 187.646 89.2951 187.59 89.2951Z" fill="#FDB4C4"/>
<path d="M43.477 175.943C42.7986 175.943 42.1201 175.774 41.4982 175.436C39.4064 174.366 38.6714 171.774 39.7456 169.746C39.8587 169.521 52.8057 145.07 59.9859 117.634C33.47 111.436 4.80565 111.324 4.29682 111.324C1.92226 111.324 0 109.408 0 107.098C0 104.789 1.86572 102.873 4.24028 102.873C5.65371 102.704 37.4276 102.873 66.2049 110.422C68.4099 110.986 69.7668 113.239 69.2579 115.493C62.1343 145.69 47.8869 172.563 47.265 173.69C46.4735 175.098 45.0035 175.943 43.477 175.943Z" fill="#FDB4C4"/>
<path d="M114.091 69.1267C112.226 69.1267 110.529 67.8873 110.021 66.0281C101.992 37.5211 101.427 5.80275 101.427 4.45064C101.37 2.14078 103.236 0.225283 105.611 0.168945H105.667C107.985 0.168945 109.851 2.0281 109.908 4.33796C109.908 4.61965 110.416 33.2957 117.144 59.7182C144.565 52.1689 168.876 38.8732 169.102 38.7042C171.137 37.5774 173.738 38.3098 174.869 40.338C175.999 42.3661 175.264 44.9577 173.229 46.0844C172.098 46.7042 145.356 61.352 115.166 68.9577C114.77 69.0704 114.431 69.1267 114.091 69.1267Z" fill="#FDB4C4"/>
<path d="M86.5583 191.774C84.2403 191.774 82.3745 189.915 82.318 187.605C82.318 187.323 81.8657 159.718 74.8551 132.225C48.4523 139.549 23.2367 153.295 23.0106 153.408C20.9752 154.535 18.3745 153.802 17.2438 151.774C16.113 149.746 16.848 147.154 18.8834 146.028C20.0706 145.408 48 130.14 76.8339 122.985C79.0954 122.422 81.3569 123.774 81.9222 125.971C90.2332 155.83 90.742 186.253 90.742 187.549C90.7986 189.802 88.9328 191.718 86.5583 191.774Z" fill="#FDB4C4"/>
<path d="M78.5876 68.732C78.1918 68.732 77.8526 68.6757 77.4568 68.563C48.7925 60.6757 21.2024 44.8447 20.0717 44.1687C18.0363 42.9856 17.3579 40.394 18.5452 38.3658C19.6759 36.394 22.2766 35.6616 24.3119 36.8447C24.5946 37.0137 49.471 51.3236 75.6476 59.2673C83.2802 31.9433 84.3544 4.39402 84.4109 4.05599C84.524 1.74613 86.5593 -0.169363 88.8208 -0.00034882C91.1388 0.0559892 93.0045 2.02782 92.8915 4.39402C92.8349 5.63345 91.6477 36.056 82.6017 65.7461C82.0929 67.5489 80.3968 68.732 78.5876 68.732Z" fill="#FDB4C4"/>
<path d="M103.464 192C103.407 192 103.351 192 103.294 192C100.976 191.887 99.1106 189.972 99.2236 187.606C99.2802 186.254 100.581 154.592 109.287 126.254C109.966 124.056 112.284 122.817 114.489 123.437C144.453 131.718 170.856 146.986 171.987 147.662C174.022 148.845 174.701 151.437 173.513 153.465C172.326 155.493 169.725 156.169 167.69 154.986C167.464 154.817 143.492 141.014 116.241 132.789C108.948 159.042 107.761 187.718 107.704 188C107.648 190.197 105.725 192 103.464 192Z" fill="#FDB4C4"/>
<path d="M4.40989 88.9012C4.29682 88.9012 4.24028 88.9012 4.18375 88.9012C1.86572 88.9012 0 86.9857 0 84.6759C0 82.366 1.86572 80.5632 4.24028 80.4505C4.29682 80.4505 33.3004 80.4505 59.9859 74.3097C52.9187 46.8167 40.0283 22.366 39.9152 22.1407C38.7845 20.0562 39.576 17.521 41.6678 16.3942C43.7597 15.3238 46.3039 16.1125 47.3781 18.1407C48 19.2674 62.1908 46.197 69.2014 76.3942C69.7102 78.6477 68.3533 80.8449 66.1484 81.4646C38.2756 88.7322 7.4629 88.9012 4.40989 88.9012Z" fill="#FDB4C4"/>
<path d="M148.466 176.057C146.939 176.057 145.469 175.212 144.734 173.803C144.113 172.62 129.356 144.507 122.685 115.662C122.176 113.409 123.533 111.212 125.738 110.648C155.872 102.93 186.459 103.043 187.646 102.986C189.964 102.986 191.886 104.902 191.886 107.212C191.886 109.522 189.964 111.437 187.646 111.437C187.646 111.437 187.646 111.437 187.533 111.437C185.724 111.437 158.812 111.55 131.9 117.803C138.741 144.169 152.084 169.634 152.197 169.86C153.272 171.944 152.48 174.479 150.445 175.55C149.823 175.888 149.144 176.057 148.466 176.057Z" fill="#FDB4C4"/>
</g>
<defs>
<clipPath id="clip0">
<rect width="192" height="192" fill="white"/>
</clipPath>
</defs>
</svg>
