<svg width="65" height="64" viewBox="0 0 65 64" fill="none" xmlns="http://www.w3.org/2000/svg">
<g clip-path="url(#clip0)">
<path d="M49.1706 9.25208C43.8204 6.21769 38.6207 3.26878 33.421 0.319861C32.5401 -0.171625 31.6806 -0.0861493 30.8212 0.405337C21.3241 5.83305 11.8271 11.2394 2.35162 16.6671C2.05081 16.8381 1.77149 17.3295 1.77149 17.6714C1.75 28.5055 1.72851 39.3182 1.79297 50.1309C1.79297 50.836 2.33013 51.8404 2.91027 52.1823C8.02404 55.1953 13.2023 58.0801 18.3805 61.0077C18.4235 61.029 18.5094 61.0077 18.7458 61.0077C18.7458 60.6017 18.7458 60.1743 18.7458 59.7683C18.7458 49.1265 18.7673 38.5062 18.7243 27.8644C18.7243 26.8601 19.0896 26.39 19.906 25.9412C29.4245 20.5563 38.9215 15.1499 48.4185 9.74357C48.6119 9.63672 48.8268 9.48714 49.1706 9.25208Z" fill="#242424"/>
<path d="M40.7046 63.9999C40.7046 63.5084 40.7046 63.1024 40.7046 62.7178C40.7046 55.2814 40.7261 47.845 40.6831 40.3872C40.6831 39.4256 40.9624 38.9128 41.8219 38.4427C48.4397 34.7458 55.0146 30.9849 61.6109 27.2454C61.9332 27.0744 62.234 26.8821 62.6208 26.647C62.4489 26.4974 62.3414 26.3692 62.191 26.2837C57.8937 23.8263 53.575 21.3903 49.2992 18.8901C48.0315 18.1422 46.9357 18.1208 45.625 18.8687C39.222 22.5656 32.7761 26.1983 26.3302 29.831C25.6211 30.2156 25.4062 30.6644 25.4062 31.455C25.4277 38.8701 25.4277 46.2637 25.4062 53.6787C25.4062 54.7899 25.75 55.666 26.7384 56.2216C31.1861 58.7432 35.6123 61.2433 40.06 63.7649C40.2104 63.8504 40.4038 63.8931 40.7046 63.9999Z" fill="#242424"/>
<path d="M62.7495 51.584C57.5713 48.6351 52.5864 45.8144 47.4727 42.9082C47.4727 48.7419 47.4727 54.3833 47.4727 60.2598C52.5435 57.375 57.5283 54.5543 62.7495 51.584Z" fill="#242424"/>
</g>
<defs>
<clipPath id="clip0">
<rect width="61" height="64" fill="white" transform="translate(1.75)"/>
</clipPath>
</defs>
</svg>
