<svg width="64" height="64" viewBox="0 0 64 64" fill="none" xmlns="http://www.w3.org/2000/svg">
<g style="mix-blend-mode:luminosity">
<path fill-rule="evenodd" clip-rule="evenodd" d="M0 32C0 14.3269 14.3263 0 31.9994 0C49.6726 0 64 14.3269 64 32C64 49.6731 49.6726 64 31.9994 64C14.3263 64 0 49.6731 0 32ZM32.1684 30.5978L32.1665 30.5976V30.5964C30.5537 30.4284 28.9409 30.2616 26.9573 30.3713C26.0061 30.4239 24.9965 30.5587 24.0373 30.7816C24.621 23.7256 29.8143 17.5496 36.8755 17.1587C41.208 16.9176 45.5381 19.4913 45.7739 23.6696C46.0051 27.7759 42.7498 30.5233 37.3769 30.8216C35.394 30.9313 33.7817 30.7646 32.1684 30.5978ZM26.7547 45.6993C22.65 45.921 18.5476 43.561 18.3256 39.7313L18.3244 39.7324C18.1069 35.9679 21.1894 33.4502 26.2796 33.177C28.1591 33.0753 29.6872 33.2284 31.2153 33.3827L31.253 33.3865C32.7697 33.5372 34.2881 33.6882 36.151 33.5884C37.0529 33.5393 38.0087 33.417 38.9175 33.2113C38.3647 39.6799 33.4462 45.3404 26.7547 45.6993Z" fill="white"/>
</g>
</svg>
