<svg width="40" height="40" fill="none" xmlns="http://www.w3.org/2000/svg"><g clip-path="url(#clip0)" fill="#242424"><path d="M2.44 28.756a.889.889 0 01-.755-.422.877.877 0 01.307-1.21c.059-.035 5.182-3.121 9.258-7.089-4.24-4.131-9.176-7.1-9.235-7.136a.884.884 0 11.907-1.514c.224.141 5.677 3.404 10.212 8.028.33.34.33.892 0 1.233-4.323 4.425-9.988 7.84-10.235 7.993-.142.07-.295.117-.46.117zm35.147 0a.855.855 0 01-.46-.13c-.235-.14-5.912-3.555-10.235-7.992a.891.891 0 010-1.232c4.523-4.625 9.976-7.888 10.212-8.029a.884.884 0 11.907 1.514c-.047.036-4.994 2.993-9.235 7.137 4.076 3.967 9.211 7.065 9.258 7.089a.887.887 0 01.307 1.209.874.874 0 01-.754.434zM19.988 13.404a.865.865 0 01-.612-.246c-4.44-4.308-7.868-9.953-8.021-10.2a.887.887 0 01.306-1.209.889.889 0 011.213.306c.035.058 3.133 5.164 7.114 9.225 4.146-4.225 7.126-9.143 7.162-9.202a.884.884 0 011.52.904c-.142.235-3.417 5.657-8.058 10.176a.973.973 0 01-.624.246zM12.12 38.392a.887.887 0 01-.766-1.338c.142-.235 3.581-5.893 8.022-10.2a.899.899 0 011.236 0c4.641 4.507 7.916 9.941 8.057 10.176a.877.877 0 01-.306 1.209.886.886 0 01-1.213-.305c-.036-.047-3.004-4.977-7.162-9.202-3.98 4.06-7.09 9.178-7.114 9.225a.875.875 0 01-.754.434z"/><path d="M39.081 18.603c-.565 0-6.76-.035-12.862-1.62a.886.886 0 01-.636-1.056c1.401-6.01 4.487-11.866 4.629-12.1a.88.88 0 011.19-.365c.435.223.6.763.364 1.186-.023.058-2.814 5.34-4.251 10.845 5.76 1.361 11.484 1.35 11.601 1.361a.88.88 0 01.884.88c0 .493-.389.88-.884.88-.011-.01-.023-.01-.035-.01zM9.058 36.655a.862.862 0 01-.413-.106.873.873 0 01-.365-1.185c.024-.047 2.721-5.141 4.217-10.857C6.973 23.216 1.001 23.192.895 23.192a.89.89 0 01-.895-.88.88.88 0 01.883-.88c.295-.035 6.914 0 12.91 1.573.46.117.742.587.636 1.056-1.484 6.291-4.453 11.89-4.582 12.124a.912.912 0 01-.79.47z"/><path d="M23.77 14.401a.88.88 0 01-.848-.645c-1.673-5.94-1.79-12.547-1.79-12.829a.88.88 0 01.87-.892h.013c.482 0 .871.387.883.869 0 .058.106 6.033 1.508 11.537C30.118 10.868 35.183 8.1 35.23 8.063a.888.888 0 011.202.34.882.882 0 01-.342 1.198c-.236.129-5.807 3.18-12.097 4.765a.802.802 0 01-.223.035zm-5.736 25.552a.886.886 0 01-.884-.868c0-.059-.094-5.81-1.555-11.538-5.5 1.526-10.753 4.39-10.8 4.413a.888.888 0 01-1.202-.34.882.882 0 01.342-1.197c.247-.13 6.066-3.31 12.073-4.8a.873.873 0 011.06.621c1.731 6.221 1.837 12.56 1.837 12.83.012.468-.377.868-.872.88zM16.373 14.32a.818.818 0 01-.236-.036c-5.972-1.643-11.72-4.941-11.955-5.082a.88.88 0 11.883-1.526c.06.035 5.242 3.017 10.695 4.672C17.35 6.655 17.574.916 17.586.845c.024-.48.448-.88.919-.845a.874.874 0 01.848.916c-.012.258-.26 6.596-2.144 12.781a.869.869 0 01-.836.623zM21.554 40h-.035a.881.881 0 01-.848-.916c.012-.281.283-6.878 2.096-12.781a.884.884 0 011.084-.587c6.243 1.725 11.743 4.906 11.979 5.047a.88.88 0 01.318 1.209.887.887 0 01-1.213.317c-.047-.036-5.041-2.911-10.719-4.625-1.52 5.47-1.767 11.444-1.778 11.502-.012.458-.412.834-.884.834z"/><path d="M.919 18.52H.872A.878.878 0 010 17.64c0-.48.389-.856.883-.88.012 0 6.055 0 11.614-1.28C11.025 9.754 8.34 4.66 8.316 4.613a.877.877 0 01.365-1.197.887.887 0 011.19.364c.129.235 3.085 5.845 4.546 12.136a.892.892 0 01-.636 1.056c-5.807 1.514-12.226 1.55-12.862 1.55zM30.93 36.678a.88.88 0 01-.777-.47c-.13-.246-3.204-6.103-4.594-12.112a.873.873 0 01.636-1.045c6.278-1.608 12.65-1.584 12.898-1.596.483 0 .883.4.883.88 0 .482-.4.88-.883.88h-.024c-.377 0-5.983.024-11.59 1.327 1.425 5.493 4.205 10.798 4.229 10.845a.88.88 0 01-.778 1.291z"/></g><defs><clipPath id="clip0"><path fill="#fff" d="M0 0h40v40H0z"/></clipPath></defs></svg>