<svg width="167" height="248" fill="none" xmlns="http://www.w3.org/2000/svg"><g clip-path="url(#clip0_433_5710)" fill="#FDB4C4"><path d="M-65.882 178.286a5.51 5.51 0 01-4.674-2.62c-1.534-2.619-.73-5.967 1.898-7.495.366-.218 32.133-19.357 57.4-43.953-26.29-25.615-56.888-44.026-57.253-44.244-2.63-1.528-3.433-4.876-1.9-7.495 1.535-2.62 4.894-3.42 7.523-1.892C-61.501 71.46-27.69 91.69.426 120.36c2.045 2.111 2.045 5.531 0 7.641-26.8 27.434-61.927 48.61-63.46 49.556-.877.437-1.826.728-2.848.728zm217.91.001c-.95 0-1.899-.219-2.848-.801-1.461-.873-36.66-22.049-63.46-49.556-2.046-2.111-2.046-5.531 0-7.641 28.042-28.671 61.853-48.901 63.314-49.775 2.629-1.528 5.988-.727 7.521 1.892 1.534 2.62.731 5.968-1.898 7.496-.292.218-30.964 18.556-57.254 44.244 25.268 24.596 57.108 43.807 57.4 43.953 2.556 1.528 3.432 4.875 1.898 7.495a5.42 5.42 0 01-4.673 2.693zM42.927 83.103c-1.388 0-2.775-.51-3.798-1.528C11.6 54.868-9.653 19.865-10.602 18.338c-1.534-2.62-.657-5.967 1.899-7.496 2.556-1.528 5.915-.727 7.521 1.893.22.363 19.426 32.018 44.109 57.197 25.705-26.198 44.181-56.688 44.4-57.052 1.534-2.62 4.893-3.42 7.522-1.892 2.556 1.528 3.432 4.876 1.899 7.495-.877 1.456-21.178 35.075-49.95 63.092-1.096.946-2.484 1.528-3.871 1.528zM-5.855 238.031c-.95 0-1.899-.219-2.848-.801-2.556-1.528-3.433-4.875-1.899-7.495.876-1.455 22.2-36.531 49.731-63.237 2.118-2.038 5.55-2.038 7.668 0 28.773 27.944 49.075 61.636 49.95 63.091 1.534 2.62.731 5.968-1.898 7.496-2.556 1.528-5.988.727-7.522-1.892-.219-.291-18.622-30.855-44.4-57.052-24.683 25.178-43.962 56.906-44.109 57.197a5.422 5.422 0 01-4.673 2.693z"/><path d="M161.306 115.34c-3.506 0-41.918-.218-79.746-10.042-2.848-.728-4.6-3.639-3.944-6.55 8.69-37.258 27.824-73.57 28.7-75.025 1.388-2.693 4.747-3.639 7.376-2.256 2.702 1.382 3.724 4.73 2.264 7.35-.146.363-17.454 33.11-26.363 67.239 35.71 8.441 71.201 8.369 71.932 8.441 2.994 0 5.477 2.402 5.477 5.458s-2.41 5.458-5.477 5.458c-.073-.073-.146-.073-.219-.073zM-24.842 227.262a5.35 5.35 0 01-2.556-.655c-2.702-1.383-3.651-4.73-2.264-7.35.146-.291 16.87-31.873 26.144-67.312-34.25-8.005-71.275-8.15-71.932-8.15-3.067 0-5.55-2.475-5.55-5.458a5.46 5.46 0 015.477-5.458c1.826-.218 42.867 0 80.038 9.751 2.848.728 4.6 3.639 3.943 6.55-9.201 39.004-27.604 73.716-28.407 75.171-1.023 1.819-2.921 2.911-4.893 2.911z"/><path d="M66.37 89.288c-2.41 0-4.601-1.6-5.259-4.002-10.37-36.822-11.1-77.791-11.1-79.538-.073-2.983 2.337-5.457 5.404-5.53h.073c2.995 0 5.404 2.401 5.477 5.385 0 .364.658 37.404 9.348 71.533 35.418-9.752 66.82-26.925 67.112-27.144 2.629-1.455 5.988-.509 7.449 2.11 1.46 2.62.511 5.968-2.118 7.423-1.461.8-36.003 19.72-74.999 29.545-.511.145-.95.218-1.388.218zM30.803 247.709c-2.994 0-5.404-2.402-5.477-5.385 0-.364-.584-36.021-9.64-71.533-34.103 9.46-66.673 27.216-66.966 27.361-2.628 1.456-5.988.51-7.448-2.11s-.511-5.967 2.117-7.422c1.534-.801 37.61-20.522 74.853-29.763 2.921-.728 5.842 1.018 6.573 3.856 10.735 38.569 11.392 77.864 11.392 79.538.073 2.911-2.337 5.385-5.404 5.458zM20.51 88.78c-.51 0-.949-.074-1.46-.22-37.025-10.187-72.662-30.635-74.123-31.509a5.46 5.46 0 01-1.971-7.495c1.46-2.547 4.82-3.493 7.449-1.965.365.219 32.497 18.702 66.308 28.963C26.572 41.26 27.96 5.676 28.033 5.239c.145-2.983 2.774-5.458 5.695-5.24 2.995.074 5.404 2.62 5.258 5.677-.073 1.6-1.606 40.897-13.29 79.246-.658 2.329-2.849 3.857-5.185 3.857zm32.132 159.219h-.22c-2.994-.145-5.403-2.619-5.258-5.676.073-1.746 1.753-42.643 13-79.246.876-2.838 3.87-4.439 6.718-3.639 38.704 10.697 72.808 30.418 74.268 31.291a5.46 5.46 0 011.972 7.496c-1.533 2.619-4.893 3.493-7.522 1.964-.292-.218-31.255-18.047-66.454-28.671-9.42 33.911-10.954 70.951-11.027 71.315-.074 2.838-2.556 5.166-5.477 5.166z"/><path d="M-75.304 114.831h-.292c-2.994 0-5.404-2.474-5.404-5.458 0-2.983 2.41-5.312 5.477-5.457.073 0 37.536 0 72.005-7.932-9.129-35.512-25.779-67.094-25.925-67.385-1.46-2.693-.438-5.967 2.264-7.423 2.702-1.382 5.988-.364 7.376 2.256C-19 24.888-.67 59.672 8.385 98.676c.657 2.911-1.095 5.749-3.943 6.55-36.003 9.387-75.802 9.605-79.746 9.605zM110.77 227.406c-1.971 0-3.87-1.091-4.819-2.911-.804-1.528-19.864-37.84-28.481-75.098a5.416 5.416 0 013.944-6.477c38.923-9.969 78.431-9.824 79.964-9.897 2.994 0 5.477 2.475 5.477 5.458 0 2.984-2.483 5.458-5.477 5.458h-.146c-2.337 0-37.098.145-71.859 8.223 8.837 34.056 26.071 66.948 26.217 67.239 1.388 2.693.365 5.967-2.264 7.35a5.336 5.336 0 01-2.556.655z"/></g><defs><clipPath id="clip0_433_5710"><path fill="#fff" transform="translate(-81)" d="M0 0h248v248H0z"/></clipPath></defs></svg>