<svg width="40" height="40" viewBox="0 0 40 40" fill="none" xmlns="http://www.w3.org/2000/svg">
<g clip-path="url(#clip0)">
<path d="M2.4392 28.756C2.14474 28.756 1.85027 28.6034 1.68537 28.3335C1.43802 27.9109 1.56759 27.371 1.99161 27.1246C2.05051 27.0894 7.17418 24.0025 11.2496 20.0354C7.00928 15.9039 2.07406 12.9344 2.01517 12.8992C1.59114 12.6527 1.46158 12.1128 1.70893 11.6903C1.95628 11.2678 2.49809 11.1386 2.92212 11.3851C3.14591 11.526 8.59939 14.7889 13.1341 19.4133C13.4639 19.7537 13.4639 20.3053 13.1341 20.6457C8.8114 25.0706 3.14591 28.4861 2.89856 28.6386C2.75722 28.7091 2.6041 28.756 2.4392 28.756Z" fill="#242424"/>
<path d="M37.5868 28.756C37.4337 28.756 37.2806 28.7208 37.1275 28.6269C36.8919 28.4861 31.2146 25.0706 26.8919 20.634C26.5621 20.2936 26.5621 19.742 26.8919 19.4016C31.4149 14.7772 36.8683 11.5143 37.1039 11.3734C37.5279 11.1269 38.0697 11.256 38.3171 11.6786C38.5644 12.1011 38.4349 12.641 38.0108 12.8875C37.9637 12.9227 33.0167 15.8805 28.7765 20.0236C32.8518 23.9908 37.9873 27.0894 38.0344 27.1128C38.4467 27.3593 38.588 27.8992 38.3406 28.3218C38.1757 28.6035 37.8813 28.756 37.5868 28.756Z" fill="#242424"/>
<path d="M19.9883 13.4043C19.7645 13.4043 19.5407 13.3222 19.3758 13.1578C14.9353 8.85032 11.5077 3.20478 11.3546 2.9583C11.1072 2.53577 11.2486 1.99586 11.6608 1.74938C12.0731 1.50291 12.6149 1.63201 12.874 2.05455C12.9093 2.11323 16.0071 7.21887 19.9883 11.2799C24.1343 7.05455 27.1143 2.13671 27.1496 2.07802C27.397 1.65549 27.9388 1.52638 28.3628 1.77286C28.7751 2.01934 28.9164 2.55924 28.6691 2.98178C28.5277 3.21652 25.2533 8.63906 20.6125 13.1578C20.4358 13.3104 20.2121 13.4043 19.9883 13.4043Z" fill="#242424"/>
<path d="M12.1202 38.3915C11.9671 38.3915 11.8139 38.3562 11.6608 38.2623C11.2486 38.0159 11.1072 37.476 11.3546 37.0534C11.4959 36.8187 14.9353 31.1614 19.3758 26.8539C19.7174 26.5253 20.2709 26.5253 20.6125 26.8539C25.2533 31.3609 28.5277 36.7952 28.6691 37.03C28.9164 37.4525 28.7869 37.9924 28.3628 38.2389C27.9506 38.4854 27.397 38.3562 27.1496 37.9337C27.1143 37.8868 24.1461 32.9572 19.9883 28.7318C16.0071 32.7929 12.8976 37.9102 12.874 37.9572C12.7091 38.2389 12.4146 38.3915 12.1202 38.3915Z" fill="#242424"/>
<path d="M39.081 18.6031C38.5157 18.6031 32.3201 18.5679 26.2188 16.9834C25.7595 16.866 25.4768 16.3965 25.5828 15.9271C26.9844 9.91766 30.0704 4.06085 30.2118 3.82611C30.4356 3.39184 30.9774 3.23926 31.4014 3.46226C31.8372 3.68527 32.0021 4.22517 31.7665 4.64771C31.743 4.70639 28.9515 9.98808 27.5145 15.4928C33.2742 16.8543 38.9986 16.8425 39.1164 16.8543C39.5993 16.8543 39.9998 17.2416 39.9998 17.7346C39.9998 18.2275 39.6111 18.6148 39.1164 18.6148C39.1046 18.6031 39.0928 18.6031 39.081 18.6031Z" fill="#242424"/>
<path d="M9.05772 36.6549C8.91637 36.6549 8.77503 36.6197 8.64547 36.5493C8.20966 36.3263 8.05654 35.7864 8.28033 35.3638C8.30389 35.3169 11.0012 30.223 12.4971 24.507C6.97291 23.216 1.00118 23.1925 0.895171 23.1925C0.400471 23.1925 0 22.7934 0 22.3122C0 21.831 0.388693 21.4319 0.883392 21.4319C1.17786 21.3967 7.79741 21.4319 13.7927 23.0047C14.2521 23.1221 14.5347 23.5916 14.4287 24.061C12.9446 30.3521 9.97644 35.9507 9.84688 36.1854C9.68198 36.4789 9.37574 36.6549 9.05772 36.6549Z" fill="#242424"/>
<path d="M23.7695 14.4014C23.3808 14.4014 23.0275 14.1431 22.9215 13.7558C21.2489 7.81685 21.1311 1.20887 21.1311 0.927175C21.1193 0.445954 21.508 0.0468933 22.0027 0.0351562H22.0145C22.4974 0.0351562 22.8861 0.42248 22.8979 0.903701C22.8979 0.962386 23.0039 6.93657 24.4056 12.4413C30.1182 10.8685 35.1829 8.09854 35.2301 8.06332C35.6541 7.82858 36.1959 7.98116 36.4315 8.4037C36.667 8.82624 36.5139 9.36614 36.0899 9.60088C35.8543 9.72999 30.2831 12.7816 23.9933 14.3661C23.9109 14.3896 23.8402 14.4014 23.7695 14.4014Z" fill="#242424"/>
<path d="M18.0335 39.9533C17.5506 39.9533 17.1619 39.566 17.1502 39.0848C17.1502 39.0261 17.0559 33.2749 15.5954 27.5472C10.0948 29.0731 4.84155 31.9369 4.79444 31.9604C4.37041 32.1951 3.8286 32.0425 3.59303 31.62C3.35746 31.1975 3.51058 30.6576 3.9346 30.4228C4.18195 30.2937 10.0006 27.113 16.0076 25.6224C16.4788 25.505 16.9499 25.7867 17.0677 26.2444C18.7991 32.4651 18.9052 38.8031 18.9052 39.0731C18.9169 39.5425 18.5282 39.9416 18.0335 39.9533Z" fill="#242424"/>
<path d="M16.3727 14.3195C16.2903 14.3195 16.2196 14.3077 16.1372 14.2842C10.1654 12.6411 4.41749 9.34293 4.18192 9.20209C3.75789 8.95561 3.61655 8.4157 3.8639 7.99317C4.09947 7.58237 4.64128 7.42979 5.06531 7.67627C5.12421 7.71148 10.3068 10.6927 15.7602 12.3476C17.3504 6.65514 17.5741 0.915705 17.5859 0.845283C17.6095 0.364062 18.0335 -0.0349991 18.5047 0.000212159C18.9876 0.0119492 19.3763 0.422747 19.3527 0.915705C19.3409 1.17392 19.0936 7.51195 17.209 13.6974C17.103 14.073 16.7496 14.3195 16.3727 14.3195Z" fill="#242424"/>
<path d="M21.5543 39.9999C21.5426 39.9999 21.5308 39.9999 21.519 39.9999C21.0361 39.9764 20.6474 39.5773 20.6709 39.0844C20.6827 38.8027 20.9536 32.2064 22.7675 26.3027C22.9089 25.8449 23.3918 25.5867 23.8512 25.7158C30.0938 27.4412 35.5944 30.6219 35.83 30.7628C36.254 31.0092 36.3953 31.5492 36.148 31.9717C35.9006 32.3942 35.3588 32.5351 34.9348 32.2886C34.8877 32.2534 29.8936 29.3778 24.2163 27.6642C22.6969 33.1337 22.4495 39.1078 22.4377 39.1665C22.4259 39.6243 22.0255 39.9999 21.5543 39.9999Z" fill="#242424"/>
<path d="M0.918728 18.5207C0.895171 18.5207 0.883392 18.5207 0.871614 18.5207C0.388693 18.5207 0 18.1216 0 17.6404C0 17.1592 0.388693 16.7836 0.883392 16.7601C0.895171 16.7601 6.93757 16.7601 12.4971 15.4808C11.0247 9.75308 8.33922 4.65918 8.31567 4.61224C8.08009 4.17796 8.24499 3.64979 8.6808 3.41505C9.11661 3.19205 9.64664 3.35637 9.87044 3.7789C10 4.01364 12.9564 9.62397 14.417 15.9151C14.523 16.3845 14.2403 16.8423 13.7809 16.9714C7.97409 18.4855 1.55477 18.5207 0.918728 18.5207Z" fill="#242424"/>
<path d="M30.9304 36.6781C30.6124 36.6781 30.3061 36.502 30.153 36.2086C30.0234 35.9621 26.9492 30.1053 25.5594 24.0959C25.4534 23.6264 25.736 23.1687 26.1954 23.0513C32.4734 21.4433 38.8456 21.4668 39.0929 21.4551C39.5759 21.4551 39.9763 21.8541 39.9763 22.3354C39.9763 22.8166 39.5759 23.2156 39.0929 23.2156C39.0929 23.2156 39.0929 23.2156 39.0694 23.2156C38.6925 23.2156 33.0859 23.2391 27.4793 24.5419C28.9045 30.0349 31.6842 35.3401 31.7078 35.387C31.9316 35.8213 31.7667 36.3495 31.3426 36.5725C31.2131 36.6429 31.0717 36.6781 30.9304 36.6781Z" fill="#242424"/>
</g>
<defs>
<clipPath id="clip0">
<rect width="40" height="40" fill="white"/>
</clipPath>
</defs>
</svg>
