<svg width="167" height="248" viewBox="0 0 167 248" fill="none" xmlns="http://www.w3.org/2000/svg">
<g clip-path="url(#clip0_433_5710)">
<path d="M-65.8824 178.286C-67.7081 178.286 -69.5338 177.34 -70.5562 175.666C-72.0897 173.047 -71.2864 169.699 -68.6575 168.171C-68.2923 167.953 -36.5255 148.814 -11.2582 124.218C-37.5479 98.603 -68.1463 80.1922 -68.5114 79.9739C-71.1404 78.4458 -71.9437 75.0984 -70.4101 72.4786C-68.8765 69.8589 -65.5173 69.0584 -62.8883 70.5866C-61.5008 71.4599 -27.6893 91.6899 0.426163 120.361C2.47092 122.472 2.47092 125.892 0.426163 128.002C-26.3748 155.436 -61.5008 176.612 -63.0344 177.558C-63.9107 177.995 -64.8601 178.286 -65.8824 178.286Z" fill="#FDB4C4"/>
<path d="M152.028 178.287C151.078 178.287 150.129 178.068 149.18 177.486C147.719 176.613 112.52 155.437 85.7191 127.93C83.6744 125.819 83.6744 122.399 85.7191 120.289C113.762 91.6176 147.573 71.3876 149.034 70.5143C151.663 68.9862 155.022 69.7867 156.555 72.4064C158.089 75.0261 157.286 78.3735 154.657 79.9017C154.365 80.12 123.693 98.458 97.4035 124.146C122.671 148.742 154.511 167.953 154.803 168.099C157.359 169.627 158.235 172.974 156.701 175.594C155.679 177.341 153.853 178.287 152.028 178.287Z" fill="#FDB4C4"/>
<path d="M42.9268 83.103C41.5393 83.103 40.1518 82.5937 39.1294 81.5749C11.5982 54.8683 -9.65268 19.8659 -10.602 18.3378C-12.1356 15.7181 -11.2593 12.3706 -8.70333 10.8425C-6.14739 9.31431 -2.78813 10.1148 -1.18154 12.7345C-0.962457 13.0983 18.2437 44.7533 42.9268 69.9317C68.6324 43.7345 87.1082 13.2439 87.3273 12.88C88.8609 10.2603 92.2201 9.45985 94.8491 10.988C97.405 12.5162 98.2814 15.8636 96.7478 18.4833C95.8715 19.9387 75.5699 53.5584 46.7973 81.5749C45.7019 82.5209 44.3143 83.103 42.9268 83.103Z" fill="#FDB4C4"/>
<path d="M-5.85527 238.031C-6.80463 238.031 -7.75398 237.812 -8.70333 237.23C-11.2593 235.702 -12.1356 232.355 -10.602 229.735C-9.72571 228.28 11.5982 193.204 39.1294 166.498C41.2472 164.46 44.6795 164.46 46.7973 166.498C75.5699 194.442 95.8715 228.134 96.7478 229.589C98.2814 232.209 97.4781 235.557 94.8491 237.085C92.2932 238.613 88.8609 237.812 87.3273 235.193C87.1082 234.902 68.7054 204.338 42.9268 178.141C18.2437 203.319 -1.03548 235.047 -1.18154 235.338C-2.20392 237.085 -4.0296 238.031 -5.85527 238.031Z" fill="#FDB4C4"/>
<path d="M161.306 115.34C157.8 115.34 119.388 115.122 81.56 105.298C78.7119 104.57 76.9592 101.659 77.6165 98.7485C86.3067 61.4903 105.44 25.1781 106.316 23.7227C107.704 21.0302 111.063 20.0842 113.692 21.4668C116.394 22.8494 117.416 26.1969 115.956 28.8166C115.81 29.1804 98.5022 61.9269 89.5929 96.056C125.303 104.497 160.794 104.425 161.525 104.497C164.519 104.497 167.002 106.899 167.002 109.955C167.002 113.011 164.592 115.413 161.525 115.413C161.452 115.34 161.379 115.34 161.306 115.34Z" fill="#FDB4C4"/>
<path d="M-24.8422 227.262C-25.7185 227.262 -26.5948 227.043 -27.3981 226.607C-30.1001 225.224 -31.0495 221.877 -29.662 219.257C-29.5159 218.966 -12.7927 187.384 -3.51826 151.945C-37.768 143.94 -74.7927 143.795 -75.4499 143.795C-78.5171 143.795 -81 141.32 -81 138.337C-81 135.353 -78.5901 132.879 -75.523 132.879C-73.6973 132.661 -32.6561 132.879 4.51472 142.63C7.36278 143.358 9.11543 146.269 8.45818 149.18C-0.743225 188.184 -19.1461 222.896 -19.9494 224.351C-20.9717 226.17 -22.8704 227.262 -24.8422 227.262Z" fill="#FDB4C4"/>
<path d="M66.3694 89.2882C63.9596 89.2882 61.7687 87.6873 61.1115 85.2859C50.7416 48.4643 50.0114 7.49477 50.0114 5.74829C49.9384 2.76472 52.3482 0.290543 55.4154 0.217773H55.4884C58.4825 0.217773 60.8924 2.61918 60.9654 5.60275C60.9654 5.9666 61.6227 43.0065 70.3129 77.1356C105.731 67.3844 137.133 50.2107 137.425 49.9924C140.054 48.537 143.413 49.483 144.874 52.1027C146.334 54.7225 145.385 58.0699 142.756 59.5253C141.295 60.3258 106.753 79.2459 67.757 89.0699C67.2458 89.2154 66.8076 89.2882 66.3694 89.2882Z" fill="#FDB4C4"/>
<path d="M30.8029 247.709C27.8088 247.709 25.3989 245.307 25.3259 242.324C25.3259 241.96 24.7417 206.303 15.6863 170.791C-18.4174 180.251 -50.9874 198.007 -51.2795 198.152C-53.9085 199.608 -57.2678 198.662 -58.7283 196.042C-60.1889 193.422 -59.2395 190.075 -56.6105 188.62C-55.077 187.819 -19.0016 168.098 18.2422 158.857C21.1633 158.129 24.0844 159.875 24.8147 162.713C35.5497 201.282 36.2069 240.577 36.2069 242.251C36.2799 245.162 33.8701 247.636 30.8029 247.709Z" fill="#FDB4C4"/>
<path d="M20.5106 88.7791C19.9994 88.7791 19.5612 88.7063 19.0501 88.5608C-17.9747 78.373 -53.6119 57.9246 -55.0725 57.0514C-57.7015 55.5232 -58.5778 52.1758 -57.0442 49.5561C-55.5837 47.0091 -52.2244 46.0631 -49.5954 47.5913C-49.2303 47.8096 -17.0984 66.2932 16.7132 76.5537C26.5719 41.2603 27.9594 5.67581 28.0324 5.23919C28.1785 2.25562 30.8074 -0.218557 33.7285 -0.000247111C36.7226 0.0725228 39.1325 2.61947 38.9865 5.67581C38.9134 7.27675 37.3799 46.5725 25.6955 84.9223C25.0383 87.2509 22.8475 88.7791 20.5106 88.7791Z" fill="#FDB4C4"/>
<path d="M52.6415 247.999C52.5685 247.999 52.4955 247.999 52.4225 247.999C49.4284 247.854 47.0185 245.38 47.1645 242.323C47.2375 240.577 48.9172 199.68 60.1633 163.077C61.0397 160.239 64.0338 158.638 66.8818 159.438C105.586 170.135 139.69 189.856 141.15 190.729C143.779 192.258 144.656 195.605 143.122 198.225C141.589 200.844 138.229 201.718 135.6 200.189C135.308 199.971 104.345 182.142 69.1457 171.518C59.7252 205.429 58.1916 242.469 58.1186 242.833C58.0455 245.671 55.5626 247.999 52.6415 247.999Z" fill="#FDB4C4"/>
<path d="M-75.3039 114.831C-75.4499 114.831 -75.523 114.831 -75.596 114.831C-78.5901 114.831 -81 112.357 -81 109.373C-81 106.39 -78.5901 104.061 -75.523 103.916C-75.4499 103.916 -37.987 103.916 -3.51826 95.9838C-12.6466 60.472 -29.2968 28.8899 -29.4429 28.5988C-30.9034 25.9063 -29.881 22.6317 -27.179 21.1763C-24.477 19.7936 -21.1908 20.8124 -19.8033 23.4321C-19 24.8875 -0.670204 59.6716 8.38515 98.6763C9.0424 101.587 7.28975 104.425 4.4417 105.226C-31.5607 114.613 -71.3604 114.831 -75.3039 114.831Z" fill="#FDB4C4"/>
<path d="M110.77 227.406C108.799 227.406 106.9 226.315 105.951 224.495C105.147 222.967 86.0872 186.655 77.47 149.397C76.8128 146.486 78.5654 143.648 81.4135 142.92C120.337 132.951 159.845 133.096 161.378 133.023C164.372 133.023 166.855 135.498 166.855 138.481C166.855 141.465 164.372 143.939 161.378 143.939C161.378 143.939 161.378 143.939 161.232 143.939C158.895 143.939 124.134 144.084 89.3734 152.162C98.2097 186.218 115.444 219.11 115.59 219.401C116.978 222.094 115.955 225.368 113.326 226.751C112.523 227.188 111.647 227.406 110.77 227.406Z" fill="#FDB4C4"/>
</g>
<defs>
<clipPath id="clip0_433_5710">
<rect width="248" height="248" fill="white" transform="translate(-81)"/>
</clipPath>
</defs>
</svg>
