<svg width="40" height="40" viewBox="0 0 40 40" fill="none" xmlns="http://www.w3.org/2000/svg">
<g clip-path="url(#clip0_1032_5290)">
<path d="M2.43822 28.756C2.14376 28.756 1.84929 28.6034 1.68439 28.3335C1.43704 27.9109 1.56661 27.371 1.99064 27.1246C2.04953 27.0894 7.17321 24.0025 11.2486 20.0354C7.00831 15.9039 2.07309 12.9344 2.01419 12.8992C1.59017 12.6527 1.4606 12.1128 1.70795 11.6903C1.9553 11.2678 2.49712 11.1386 2.92114 11.3851C3.14494 11.526 8.59841 14.7889 13.1332 19.4133C13.463 19.7537 13.463 20.3053 13.1332 20.6457C8.81042 25.0706 3.14494 28.4861 2.89759 28.6386C2.75624 28.7091 2.60312 28.756 2.43822 28.756Z" fill="#FDB4C4"/>
<path d="M37.5854 28.756C37.4322 28.756 37.2791 28.7208 37.126 28.6269C36.8904 28.4861 31.2131 25.0706 26.8904 20.634C26.5606 20.2936 26.5606 19.742 26.8904 19.4016C31.4134 14.7772 36.8669 11.5143 37.1024 11.3734C37.5265 11.1269 38.0683 11.256 38.3156 11.6786C38.563 12.1011 38.4334 12.641 38.0094 12.8875C37.9623 12.9227 33.0153 15.8805 28.775 20.0236C32.8504 23.9908 37.9858 27.0894 38.0329 27.1128C38.4452 27.3593 38.5865 27.8992 38.3392 28.3218C38.1743 28.6035 37.8798 28.756 37.5854 28.756Z" fill="#FDB4C4"/>
<path d="M19.9883 13.4033C19.7645 13.4033 19.5407 13.3212 19.3758 13.1569C14.9353 8.84935 11.5077 3.20381 11.3546 2.95733C11.1072 2.53479 11.2486 1.99489 11.6608 1.74841C12.0731 1.50193 12.6149 1.63104 12.874 2.05357C12.9093 2.11226 16.0071 7.21789 19.9883 11.2789C24.1343 7.05357 27.1143 2.13573 27.1496 2.07705C27.397 1.65451 27.9388 1.5254 28.3628 1.77188C28.7751 2.01836 28.9164 2.55827 28.6691 2.9808C28.5277 3.21554 25.2533 8.63808 20.6125 13.1569C20.4358 13.3094 20.2121 13.4033 19.9883 13.4033Z" fill="#FDB4C4"/>
<path d="M12.1202 38.3924C11.9671 38.3924 11.8139 38.3572 11.6608 38.2633C11.2486 38.0169 11.1072 37.4769 11.3546 37.0544C11.4959 36.8197 14.9353 31.1624 19.3758 26.8549C19.7174 26.5262 20.2709 26.5262 20.6125 26.8549C25.2533 31.3619 28.5277 36.7962 28.6691 37.0309C28.9164 37.4535 28.7868 37.9934 28.3628 38.2399C27.9506 38.4863 27.397 38.3572 27.1496 37.9347C27.1143 37.8877 24.1461 32.9582 19.9883 28.7328C16.0071 32.7938 12.8976 37.9112 12.874 37.9582C12.7091 38.2399 12.4146 38.3924 12.1202 38.3924Z" fill="#FDB4C4"/>
<path d="M39.0815 18.6031C38.5161 18.6031 32.3206 18.5679 26.2193 16.9834C25.76 16.866 25.4773 16.3965 25.5833 15.927C26.9849 9.91766 30.0709 4.06085 30.2123 3.82611C30.4361 3.39184 30.9779 3.23926 31.4019 3.46226C31.8377 3.68527 32.0026 4.22517 31.767 4.64771C31.7435 4.70639 28.952 9.98808 27.515 15.4928C33.2747 16.8543 38.9991 16.8425 39.1169 16.8543C39.5998 16.8543 40.0002 17.2416 40.0002 17.7346C40.0002 18.2275 39.6116 18.6148 39.1169 18.6148C39.1051 18.6031 39.0933 18.6031 39.0815 18.6031Z" fill="#FDB4C4"/>
<path d="M9.05772 36.6549C8.91637 36.6549 8.77503 36.6197 8.64547 36.5493C8.20966 36.3263 8.05654 35.7864 8.28033 35.3639C8.30389 35.3169 11.0012 30.223 12.4971 24.507C6.97291 23.216 1.00118 23.1925 0.895171 23.1925C0.400471 23.1925 0 22.7934 0 22.3122C0 21.831 0.388693 21.4319 0.883392 21.4319C1.17786 21.3967 7.79741 21.4319 13.7927 23.0047C14.2521 23.1221 14.5347 23.5916 14.4287 24.061C12.9446 30.3521 9.97644 35.9507 9.84688 36.1855C9.68198 36.4789 9.37574 36.6549 9.05772 36.6549Z" fill="#FDB4C4"/>
<path d="M23.7695 14.4014C23.3808 14.4014 23.0275 14.1431 22.9215 13.7558C21.2489 7.81685 21.1311 1.20887 21.1311 0.927175C21.1193 0.445954 21.508 0.0468933 22.0027 0.0351562H22.0145C22.4974 0.0351562 22.8861 0.42248 22.8979 0.903701C22.8979 0.962386 23.0039 6.93657 24.4056 12.4413C30.1182 10.8685 35.1829 8.09854 35.2301 8.06332C35.6541 7.82858 36.1959 7.98116 36.4315 8.4037C36.667 8.82624 36.5139 9.36614 36.0899 9.60088C35.8543 9.72999 30.2831 12.7816 23.9933 14.3661C23.9109 14.3896 23.8402 14.4014 23.7695 14.4014Z" fill="#FDB4C4"/>
<path d="M18.0326 39.9533C17.5496 39.9533 17.161 39.566 17.1492 39.0848C17.1492 39.0261 17.0549 33.2749 15.5944 27.5472C10.0938 29.0731 4.84058 31.9369 4.79346 31.9604C4.36944 32.1951 3.82762 32.0425 3.59205 31.62C3.35648 31.1975 3.5096 30.6576 3.93363 30.4228C4.18098 30.2937 9.99959 27.113 16.0067 25.6224C16.4778 25.505 16.9489 25.7867 17.0667 26.2444C18.7982 32.4651 18.9042 38.8031 18.9042 39.0731C18.916 39.5425 18.5273 39.9416 18.0326 39.9533Z" fill="#FDB4C4"/>
<path d="M16.3722 14.3195C16.2898 14.3195 16.2191 14.3077 16.1367 14.2842C10.1649 12.6411 4.417 9.34294 4.18143 9.20209C3.7574 8.95561 3.61606 8.4157 3.86341 7.99317C4.09898 7.58237 4.6408 7.42979 5.06482 7.67627C5.12372 7.71148 10.3063 10.6927 15.7598 12.3476C17.3499 6.65514 17.5737 0.915705 17.5854 0.845283C17.609 0.364062 18.033 -0.0349991 18.5042 0.00021216C18.9871 0.0119492 19.3758 0.422747 19.3522 0.915705C19.3404 1.17392 19.0931 7.51195 17.2085 13.6974C17.1025 14.073 16.7492 14.3195 16.3722 14.3195Z" fill="#FDB4C4"/>
<path d="M21.5548 39.9999C21.543 39.9999 21.5313 39.9999 21.5195 39.9999C21.0366 39.9764 20.6479 39.5773 20.6714 39.0844C20.6832 38.8027 20.9541 32.2064 22.768 26.3027C22.9094 25.8449 23.3923 25.5867 23.8516 25.7158C30.0943 27.4412 35.5949 30.6219 35.8304 30.7628C36.2545 31.0092 36.3958 31.5492 36.1485 31.9717C35.9011 32.3942 35.3593 32.5351 34.9353 32.2886C34.8882 32.2534 29.894 29.3778 24.2168 27.6642C22.6973 33.1337 22.45 39.1078 22.4382 39.1665C22.4264 39.6243 22.026 39.9999 21.5548 39.9999Z" fill="#FDB4C4"/>
<path d="M0.918728 18.5207C0.895171 18.5207 0.883392 18.5207 0.871614 18.5207C0.388693 18.5207 0 18.1216 0 17.6404C0 17.1592 0.388693 16.7836 0.883392 16.7601C0.895171 16.7601 6.93757 16.7601 12.4971 15.4808C11.0247 9.75308 8.33922 4.65918 8.31567 4.61224C8.08009 4.17796 8.24499 3.64979 8.6808 3.41505C9.11661 3.19205 9.64664 3.35637 9.87044 3.7789C10 4.01364 12.9564 9.62397 14.417 15.9151C14.523 16.3845 14.2403 16.8423 13.7809 16.9714C7.97409 18.4855 1.55477 18.5207 0.918728 18.5207Z" fill="#FDB4C4"/>
<path d="M30.9309 36.6781C30.6129 36.6781 30.3066 36.502 30.1535 36.2086C30.0239 35.9621 26.9497 30.1053 25.5599 24.0959C25.4538 23.6264 25.7365 23.1687 26.1959 23.0513C32.4739 21.4433 38.8461 21.4668 39.0934 21.4551C39.5763 21.4551 39.9768 21.8541 39.9768 22.3354C39.9768 22.8166 39.5763 23.2156 39.0934 23.2156C39.0934 23.2156 39.0934 23.2156 39.0699 23.2156C38.6929 23.2156 33.0864 23.2391 27.4798 24.5419C28.905 30.0349 31.6847 35.3401 31.7083 35.387C31.9321 35.8213 31.7672 36.3494 31.3431 36.5724C31.2136 36.6429 31.0722 36.6781 30.9309 36.6781Z" fill="#FDB4C4"/>
</g>
<defs>
<clipPath id="clip0_1032_5290">
<rect width="40" height="40" fill="white"/>
</clipPath>
</defs>
</svg>
