<svg width="18" height="18" viewBox="0 0 18 18" fill="none" xmlns="http://www.w3.org/2000/svg">
<path fill-rule="evenodd" clip-rule="evenodd" d="M8.92518 0C3.99402 0 0 3.99402 0 8.92518C0 12.8746 2.55483 16.2104 6.10259 17.3929C6.54885 17.471 6.7162 17.2033 6.7162 16.969C6.7162 16.757 6.70504 16.0542 6.70504 15.3067C4.46259 15.7195 3.88245 14.76 3.70395 14.258C3.60354 14.0014 3.16844 13.2093 2.78912 12.9973C2.47674 12.8299 2.03048 12.4172 2.77796 12.406C3.48082 12.3948 3.98286 13.0531 4.15021 13.3208C4.95348 14.6708 6.23647 14.2914 6.74967 14.0572C6.82777 13.477 7.06205 13.0865 7.31865 12.8634C5.3328 12.6403 3.25769 11.8705 3.25769 8.45661C3.25769 7.486 3.60354 6.68273 4.17252 6.05797C4.08327 5.83484 3.77089 4.92001 4.26178 3.69279C4.26178 3.69279 5.00926 3.45851 6.7162 4.60763C7.43022 4.40681 8.18886 4.3064 8.9475 4.3064C9.70614 4.3064 10.4648 4.40681 11.1788 4.60763C12.8857 3.44735 13.6332 3.69279 13.6332 3.69279C14.1241 4.92001 13.8117 5.83484 13.7225 6.05797C14.2915 6.68273 14.6373 7.47484 14.6373 8.45661C14.6373 11.8816 12.551 12.6403 10.5652 12.8634C10.8887 13.1423 11.1676 13.6778 11.1676 14.5146C11.1676 15.7083 11.1565 16.6678 11.1565 16.969C11.1565 17.2033 11.3238 17.4822 11.7701 17.3929C13.5419 16.7948 15.0815 15.656 16.1722 14.137C17.2629 12.618 17.8498 10.7952 17.8504 8.92518C17.8504 3.99402 13.8563 0 8.92518 0Z" fill="black"/>
</svg>
