<svg width="192" height="192" fill="none" xmlns="http://www.w3.org/2000/svg"><g clip-path="url(#clip0)" fill="#FDB4C4"><path d="M11.704 138.028A4.266 4.266 0 018.085 136c-1.187-2.028-.565-4.62 1.47-5.803.283-.169 24.877-14.986 44.439-34.028C33.64 76.338 9.95 62.084 9.669 61.915c-2.036-1.183-2.658-3.774-1.47-5.802 1.187-2.029 3.787-2.648 5.823-1.465 1.074.676 27.25 16.338 49.018 38.535 1.583 1.634 1.583 4.282 0 5.915-20.75 21.24-47.944 37.634-49.131 38.367-.679.338-1.414.563-2.205.563zm168.706.001c-.735 0-1.47-.169-2.205-.62-1.131-.676-28.382-17.07-49.131-38.366-1.583-1.634-1.583-4.282 0-5.916 21.71-22.197 47.887-37.859 49.018-38.535 2.035-1.183 4.636-.563 5.823 1.465 1.187 2.028.565 4.62-1.47 5.803-.226.169-23.972 14.366-44.325 34.253 19.562 19.043 44.212 33.916 44.438 34.028 1.979 1.184 2.657 3.775 1.47 5.803a4.198 4.198 0 01-3.618 2.085zM95.944 64.338c-1.074 0-2.148-.395-2.94-1.183C71.69 42.477 55.237 15.38 54.502 14.197c-1.187-2.028-.509-4.62 1.47-5.803 1.98-1.183 4.58-.563 5.824 1.465.17.281 15.039 24.788 34.148 44.281 19.901-20.281 34.205-43.887 34.375-44.169 1.187-2.028 3.788-2.647 5.823-1.464 1.979 1.183 2.657 3.774 1.47 5.802-.679 1.127-16.396 27.155-38.671 48.846-.849.732-1.923 1.183-2.997 1.183zM58.177 184.282c-.735 0-1.47-.169-2.205-.62-1.979-1.183-2.657-3.774-1.47-5.802.679-1.127 17.188-28.282 38.502-48.958 1.64-1.578 4.297-1.578 5.936 0 22.276 21.634 37.993 47.718 38.672 48.845 1.187 2.028.565 4.62-1.47 5.803-1.979 1.183-4.636.563-5.823-1.465-.17-.225-14.417-23.887-34.375-44.169-19.11 19.493-34.035 44.056-34.148 44.282a4.197 4.197 0 01-3.619 2.084z"/><path d="M187.59 89.295c-2.714 0-32.453-.169-61.739-7.775-2.205-.563-3.562-2.816-3.053-5.07 6.728-28.845 21.541-56.958 22.219-58.085 1.075-2.084 3.675-2.816 5.711-1.746 2.091 1.07 2.883 3.662 1.752 5.69-.113.282-13.512 25.634-20.41 52.056 27.647 6.536 55.124 6.48 55.689 6.536 2.318 0 4.241 1.859 4.241 4.225 0 2.366-1.866 4.225-4.241 4.225-.056-.056-.113-.056-.169-.056zM43.477 175.943a4.137 4.137 0 01-1.979-.507c-2.092-1.07-2.827-3.662-1.752-5.69.113-.225 13.06-24.676 20.24-52.112-26.516-6.198-55.18-6.31-55.69-6.31-2.374 0-4.296-1.916-4.296-4.226a4.227 4.227 0 014.24-4.225c1.414-.169 33.188 0 61.965 7.549 2.205.564 3.562 2.817 3.053 5.071-7.124 30.197-21.371 57.07-21.993 58.197-.791 1.408-2.261 2.253-3.788 2.253z"/><path d="M114.091 69.127a4.221 4.221 0 01-4.07-3.099c-8.029-28.507-8.594-60.225-8.594-61.577-.057-2.31 1.809-4.226 4.184-4.282h.056c2.318 0 4.184 1.86 4.241 4.169 0 .282.508 28.958 7.236 55.38 27.421-7.55 51.732-20.845 51.958-21.014 2.035-1.127 4.636-.394 5.767 1.634 1.13 2.028.395 4.62-1.64 5.746-1.131.62-27.873 15.268-58.063 22.874a3.856 3.856 0 01-1.075.169zM86.558 191.774c-2.318 0-4.184-1.859-4.24-4.169 0-.282-.452-27.887-7.463-55.38-26.403 7.324-51.618 21.07-51.844 21.183-2.036 1.127-4.636.394-5.767-1.634-1.131-2.028-.396-4.62 1.64-5.746 1.187-.62 29.116-15.888 57.95-23.043 2.261-.563 4.523.789 5.088 2.986 8.311 29.859 8.82 60.282 8.82 61.578.057 2.253-1.81 4.169-4.184 4.225zm-7.97-123.042a3.93 3.93 0 01-1.131-.169c-28.664-7.887-56.255-23.718-57.385-24.394a4.227 4.227 0 01-1.527-5.803c1.13-1.972 3.732-2.704 5.767-1.521.283.169 25.159 14.479 51.336 22.422C83.28 31.943 84.354 4.394 84.41 4.056c.113-2.31 2.148-4.225 4.41-4.056 2.318.056 4.183 2.028 4.07 4.394-.056 1.24-1.243 31.662-10.29 61.352-.508 1.803-2.204 2.986-4.013 2.986zM103.464 192h-.17c-2.318-.113-4.183-2.028-4.07-4.394.056-1.352 1.357-33.014 10.063-61.352.679-2.198 2.997-3.437 5.202-2.817 29.964 8.281 56.367 23.549 57.498 24.225a4.227 4.227 0 011.526 5.803 4.258 4.258 0 01-5.823 1.521c-.226-.169-24.198-13.972-51.449-22.197-7.293 26.253-8.48 54.929-8.537 55.211-.056 2.197-1.979 4-4.24 4z"/><path d="M4.41 88.901h-.226C1.866 88.901 0 86.986 0 84.676c0-2.31 1.866-4.113 4.24-4.225.057 0 29.06 0 55.746-6.141-7.067-27.493-19.958-51.944-20.07-52.17-1.131-2.084-.34-4.619 1.752-5.746 2.092-1.07 4.636-.281 5.71 1.747.622 1.126 14.813 28.056 21.823 58.253.51 2.254-.848 4.45-3.053 5.07-27.872 7.268-58.685 7.437-61.738 7.437zm144.056 87.156a4.225 4.225 0 01-3.732-2.254c-.621-1.183-15.378-29.296-22.049-58.141a4.193 4.193 0 013.053-5.014c30.134-7.718 60.721-7.605 61.908-7.662 2.318 0 4.24 1.916 4.24 4.226s-1.922 4.225-4.24 4.225h-.113c-1.809 0-28.721.113-55.633 6.366 6.841 26.366 20.184 51.831 20.297 52.057 1.075 2.084.283 4.619-1.752 5.69a4.14 4.14 0 01-1.979.507z"/></g><defs><clipPath id="clip0"><path fill="#fff" d="M0 0h192v192H0z"/></clipPath></defs></svg>