<svg width="17" height="16" fill="none" xmlns="http://www.w3.org/2000/svg"><path fill-rule="evenodd" clip-rule="evenodd" d="M8.916 0a8 8 0 110 16 8 8 0 010-16zm-2.96 12.221s.403-.448.693-.844c-1.396-.395-1.923-1.186-1.923-1.186 1.452.898 2.808 1.243 4.19 1.198 1.382.045 2.738-.3 4.19-1.198 0 0-.527.791-1.923 1.186.29.396.693.844.693.844 1.959-.043 2.937-1.031 3.258-1.355.072-.072.11-.112.12-.1 0-3.264-1.584-5.922-1.584-5.922-1.418-1.018-2.74-1.06-2.992-1.065l-.161.153c1.81.506 2.686 1.297 2.686 1.297a10.068 10.068 0 00-4.287-1.03c-1.269.016-2.733.28-4.287 1.03 0 0 .876-.791 2.686-1.297l-.16-.153c-.253.005-1.575.047-2.993 1.065 0 0-1.585 2.658-1.585 5.922.01-.012.05.027.12.1.322.324 1.3 1.312 3.26 1.355zm4.91-4.73v-.005c.613 0 1.107.506 1.107 1.128 0 .623-.494 1.129-1.107 1.129A1.116 1.116 0 019.76 8.62c0-.623.5-1.129 1.107-1.129zm-3.9 0v-.005c-.612 0-1.106.506-1.106 1.128 0 .622.494 1.129 1.106 1.129.613 0 1.107-.507 1.107-1.124 0-.622-.5-1.128-1.107-1.128z" fill="#242424"/></svg>