<svg width="24" height="24" fill="none" xmlns="http://www.w3.org/2000/svg"><path fill-rule="evenodd" clip-rule="evenodd" d="M12 0c6.627 0 12 5.373 12 12s-5.373 12-12 12S0 18.627 0 12 5.373 0 12 0zM7.56 18.332s.605-.673 1.04-1.266c-2.095-.593-2.885-1.78-2.885-1.78 2.178 1.347 4.212 1.865 6.285 1.798 2.073.067 4.107-.45 6.285-1.797 0 0-.79 1.186-2.885 1.78.435.592 1.04 1.265 1.04 1.265 2.938-.065 4.406-1.547 4.887-2.033.108-.109.166-.168.18-.15 0-4.896-2.376-8.883-2.376-8.883-2.127-1.526-4.11-1.59-4.488-1.598l-.242.23c2.715.759 4.029 1.945 4.029 1.945C16.1 6.718 13.903 6.322 12 6.298c-1.903.024-4.1.42-6.43 1.545 0 0 1.313-1.186 4.029-1.945l-.242-.23c-.379.008-2.36.071-4.488 1.598 0 0-2.377 3.986-2.377 8.883.015-.018.073.041.18.15.482.486 1.95 1.968 4.888 2.033zm7.364-7.095v-.008c.918 0 1.66.76 1.66 1.693s-.742 1.693-1.66 1.693c-.919 0-1.66-.76-1.66-1.685 0-.933.75-1.693 1.66-1.693zm-5.85 0v-.008c-.918 0-1.66.76-1.66 1.692 0 .934.742 1.693 1.66 1.693.919 0 1.66-.76 1.66-1.685 0-.933-.749-1.692-1.66-1.692z" fill="#fff"/></svg>