<svg width="17" height="16" fill="none" xmlns="http://www.w3.org/2000/svg"><path d="M8.915 0C4.498 0 .935 3.672.959 8.203c.02 3.623 2.327 6.697 5.513 7.783.4.075.545-.178.544-.396-.001-.195-.01-.71-.018-1.395-2.223.496-2.701-1.1-2.701-1.1-.368-.947-.894-1.2-.894-1.2-.73-.508.051-.498.051-.498.803.058 1.23.846 1.23.846.72 1.253 1.877.891 2.332.68.07-.53.274-.89.502-1.096-1.777-.207-3.649-.91-3.665-4.053-.005-.896.303-1.628.812-2.202-.084-.207-.362-1.042.067-2.17 0 0 .67-.22 2.204.84a7.468 7.468 0 012.002-.275 7.517 7.517 0 012.004.276c1.522-1.06 2.194-.84 2.194-.84.442 1.13.172 1.963.091 2.17.516.574.83 1.306.834 2.202.017 3.15-1.85 3.844-3.63 4.047.288.253.546.754.55 1.519.006 1.096 0 1.98.002 2.25.001.219.147.474.552.394 3.17-1.087 5.443-4.16 5.424-7.782C16.935 3.673 13.334 0 8.915 0z" fill="#242424"/></svg>