<svg width="25" height="24" fill="none" xmlns="http://www.w3.org/2000/svg"><path d="M11.998 0C5.373 0 .03 5.509.066 12.304c.028 5.435 3.49 10.046 8.27 11.674.6.114.817-.266.815-.593-.001-.292-.016-1.066-.027-2.092-3.334.743-4.052-1.65-4.052-1.65-.552-1.421-1.341-1.8-1.341-1.8-1.095-.763.077-.747.077-.747 1.205.087 1.844 1.268 1.844 1.268 1.081 1.88 2.817 1.337 3.499 1.022.104-.795.411-1.337.753-1.645-2.665-.311-5.473-1.367-5.498-6.08-.007-1.344.456-2.442 1.219-3.303-.126-.311-.544-1.563.1-3.255 0 0 1.006-.331 3.306 1.26a11.21 11.21 0 013.003-.413c1.018.006 2.047.14 3.007.415 2.282-1.592 3.29-1.26 3.29-1.26.663 1.693.258 2.943.137 3.254.774.861 1.243 1.96 1.25 3.303.025 4.726-2.774 5.766-5.446 6.07.433.38.82 1.131.827 2.279.008 1.645 0 2.972.003 3.375.001.329.22.712.828.59 4.754-1.63 8.164-6.238 8.136-11.672C24.029 5.509 18.627 0 11.998 0z" fill="#fff"/></svg>