<svg width="25" height="22" fill="none" xmlns="http://www.w3.org/2000/svg"><path d="M24.068 3.537c-.895.392-1.848.653-2.843.779a4.907 4.907 0 002.171-2.727 9.86 9.86 0 01-3.129 1.194 4.933 4.933 0 00-8.535 3.374c0 .391.033.767.114 1.125-4.102-.2-7.732-2.166-10.17-5.16A4.968 4.968 0 001 4.614c0 1.71.88 3.224 2.192 4.101a4.873 4.873 0 01-2.23-.608v.054a4.958 4.958 0 003.954 4.849c-.402.11-.84.162-1.294.162a4.37 4.37 0 01-.934-.084c.64 1.954 2.454 3.39 4.61 3.437a9.915 9.915 0 01-6.117 2.105c-.405 0-.793-.018-1.181-.068a13.891 13.891 0 007.57 2.214c9.08 0 14.043-7.521 14.043-14.04 0-.219-.007-.43-.018-.638a9.843 9.843 0 002.473-2.562z" fill="#fff"/></svg>