<svg width="19" height="16" fill="none" xmlns="http://www.w3.org/2000/svg"><path d="M18.967 2.403a7.716 7.716 0 01-2.132.584A3.68 3.68 0 0018.463.942a7.395 7.395 0 01-2.347.896 3.7 3.7 0 00-6.401 2.53c0 .293.025.576.086.844a10.475 10.475 0 01-7.628-3.87 3.726 3.726 0 00-.507 1.87c0 1.281.66 2.417 1.644 3.075a3.655 3.655 0 01-1.672-.456v.041a3.718 3.718 0 002.965 3.636c-.301.083-.63.122-.97.122a3.24 3.24 0 01-.7-.063 3.736 3.736 0 003.457 2.578 7.436 7.436 0 01-4.588 1.578c-.304 0-.595-.013-.886-.05a10.419 10.419 0 005.677 1.66c6.81 0 10.533-5.64 10.533-10.53 0-.164-.006-.322-.014-.479a7.382 7.382 0 001.855-1.921z" fill="#242424"/></svg>