<svg width="58" height="58" viewBox="0 0 58 58" fill="none" xmlns="http://www.w3.org/2000/svg">
<path fill-rule="evenodd" clip-rule="evenodd" d="M26.6666 33.111C19.7939 33.111 14.2222 27.5397 14.2222 20.6666C14.2222 13.7935 19.7939 8.2222 26.6666 8.2222C33.5397 8.2222 39.111 13.7935 39.111 20.6666C39.111 27.5397 33.5397 33.111 26.6666 33.111ZM26.6666 2C36.9759 2 45.3332 10.3574 45.3332 20.6666C45.3332 30.9758 36.9759 39.3332 26.6666 39.3332C16.3574 39.3332 8 30.9758 8 20.6666C8 10.3574 16.3574 2 26.6666 2ZM44.4221 40.2443C45.6371 41.4593 45.6371 43.4289 44.4221 44.644L31.9773 57.0887C30.7623 58.3038 28.7927 58.3038 27.5777 57.0887C26.3627 55.8737 26.3627 53.9041 27.5777 52.6891L40.0225 40.2443C41.2375 39.0293 43.2071 39.0293 44.4221 40.2443ZM51.5554 5.1111C51.5554 6.82956 50.1628 8.2222 48.4447 8.2222C46.7262 8.2222 45.3336 6.82956 45.3336 5.1111C45.3336 3.39264 46.7262 2 48.4447 2C50.1628 2 51.5554 3.39264 51.5554 5.1111Z" fill="white"/>
</svg>
