<svg width="58" height="58" viewBox="0 0 58 58" fill="none" xmlns="http://www.w3.org/2000/svg">
<path fill-rule="evenodd" clip-rule="evenodd" d="M33.6479 28.7454C30.3452 28.9357 28.2754 28.1664 24.9723 28.3571C24.1531 28.4031 23.3396 28.5219 22.5412 28.7119C23.0288 22.6035 27.3519 17.26 33.2306 16.9204C36.8381 16.7122 40.4439 18.9396 40.6394 22.5554C40.8319 26.1093 38.1221 28.4868 33.6483 28.7449L33.6479 28.7454ZM24.779 41.2399C21.323 41.4351 17.8692 39.3499 17.6817 35.9663C17.4972 32.6402 20.0937 30.4151 24.3794 30.1735C27.543 29.9952 29.5261 30.7155 32.6897 30.5368C33.4741 30.4938 34.2533 30.3827 35.0186 30.2047C34.5523 35.9213 30.411 40.9225 24.779 41.2399ZM28.9999 1.44478C13.7812 1.44434 1.44434 13.781 1.44434 28.9999C1.44434 44.2187 13.7812 56.5554 28.9999 56.5554C44.2186 56.5554 56.5554 44.2183 56.5554 28.9999C56.5554 13.7815 44.2186 1.44434 28.9999 1.44434" fill="white"/>
</svg>
