<svg width="58" height="58" viewBox="0 0 58 58" fill="none" xmlns="http://www.w3.org/2000/svg">
<g clip-path="url(#clip0_1029_16174)">
<path d="M2 29.5C2 14.3122 14.1486 2 29.1346 2C44.1109 2 55.6819 14.0833 56.0342 29.3809C56.0342 34.2619 54.3897 38.369 50.2785 42.238C46.8043 45.5077 40.8811 45.988 36.5353 43.5476C33.4334 41.7342 31.0428 37.8722 29.0171 35.0357L25.2582 40.869H17.1531L24.7884 29.3805L17.388 18.0714H25.7281L29.076 23.9048L32.3648 18.0714H40.7638L33.1285 29.3809C33.1285 29.3809 36.7699 35.0357 38.7668 37.2381C40.7638 39.4406 44.4052 39.5 46.7544 37.1191C49.3375 34.5012 49.9157 32.4168 49.9262 29.3809C49.9664 17.6303 40.7568 8.19047 29.1346 8.19047C17.5221 8.19047 8.10822 17.7311 8.10822 29.5C8.10822 41.2689 17.5221 50.8096 29.1346 50.8096C30.7409 50.8096 32.2803 50.6728 33.7745 50.3332L35.0667 56.3453C32.9406 56.8283 31.2229 57 29.1346 57C14.1486 57 2 44.6878 2 29.5Z" fill="white"/>
</g>
<defs>
<clipPath id="clip0_1029_16174">
<rect width="58" height="58" fill="white"/>
</clipPath>
</defs>
</svg>
