<svg width="65" height="64" fill="none" xmlns="http://www.w3.org/2000/svg"><g clip-path="url(#clip0)" fill="#242424"><path d="M49.17 9.252L33.422.32c-.88-.492-1.74-.406-2.6.085-9.497 5.428-18.994 10.834-28.47 16.262-.3.171-.58.662-.58 1.004-.021 10.835-.042 21.647.022 32.46 0 .705.537 1.71 1.117 2.051 5.114 3.013 10.292 5.898 15.47 8.826.044.021.13 0 .366 0v-1.24c0-10.642.021-21.262-.022-31.904 0-1.004.366-1.474 1.182-1.923A12519.01 12519.01 0 0048.42 9.744c.193-.107.408-.257.752-.492z"/><path d="M40.705 64v-1.282c0-7.437.021-14.873-.022-22.33 0-.962.28-1.475 1.139-1.945 6.618-3.697 13.193-7.458 19.789-11.198.322-.17.623-.363 1.01-.598-.172-.15-.28-.278-.43-.363-4.297-2.458-8.616-4.894-12.892-7.394-1.267-.748-2.363-.77-3.674-.021-6.403 3.697-12.849 7.33-19.295 10.962-.709.385-.924.833-.924 1.624.022 7.415.022 14.809 0 22.224 0 1.11.344 1.987 1.332 2.543 4.448 2.521 8.874 5.021 13.322 7.543.15.085.344.128.645.235z"/><path d="M62.75 51.584c-5.179-2.949-10.164-5.77-15.277-8.676V60.26c5.07-2.885 10.055-5.706 15.276-8.676z"/></g><defs><clipPath id="clip0"><path fill="#fff" transform="translate(1.75)" d="M0 0h61v64H0z"/></clipPath></defs></svg>