<svg width="64" height="64" fill="none" xmlns="http://www.w3.org/2000/svg"><path fill-rule="evenodd" clip-rule="evenodd" d="M0 32C0 14.327 14.326 0 32 0c17.673 0 32 14.327 32 32 0 17.673-14.327 32-32 32C14.325 64 0 49.673 0 32zm32.168-1.402h-.002v-.002c-1.612-.168-3.225-.334-5.209-.225a17.33 17.33 0 00-2.92.41c.584-7.055 5.777-13.231 12.839-13.622 4.332-.241 8.662 2.332 8.898 6.51.231 4.107-3.024 6.854-8.397 7.153-1.983.11-3.595-.057-5.209-.224zm-5.413 15.101c-4.105.222-8.207-2.138-8.43-5.968v.001c-.218-3.764 2.864-6.282 7.955-6.555 1.88-.102 3.407.051 4.935.206l.038.003c1.517.151 3.035.302 4.898.202a16.814 16.814 0 002.766-.377c-.552 6.469-5.47 12.13-12.162 12.488z" fill="#fff"/></svg>