<svg width="17" height="16" viewBox="0 0 17 16" fill="none" xmlns="http://www.w3.org/2000/svg">
<path fill-rule="evenodd" clip-rule="evenodd" d="M8.91602 0C13.3343 0 16.916 3.58173 16.916 8C16.916 12.4183 13.3343 16 8.91602 16C4.49774 16 0.916016 12.4183 0.916016 8C0.916016 3.58173 4.49774 0 8.91602 0ZM5.95621 12.2212C5.95621 12.2212 6.35922 11.7728 6.64917 11.3774C5.25253 10.982 4.72597 10.191 4.72597 10.191C6.17809 11.0888 7.53429 11.4343 8.91602 11.3894C10.2977 11.4342 11.6539 11.0888 13.1059 10.191C13.1059 10.191 12.5795 10.982 11.1827 11.3774C11.4728 11.7729 11.8756 12.2212 11.8756 12.2212C13.8349 12.178 14.8134 11.1899 15.1344 10.8657C15.2059 10.7935 15.2448 10.7542 15.2546 10.7658C15.2546 7.50176 13.6699 4.84403 13.6699 4.84403C12.2518 3.82643 10.9304 3.78413 10.6779 3.77885L10.5168 3.93178C12.327 4.43798 13.2026 5.22896 13.2026 5.22896C11.6489 4.47853 10.1845 4.21456 8.91602 4.19875C7.64747 4.21475 6.18322 4.47853 4.62942 5.22896C4.62942 5.22896 5.50501 4.43798 7.31525 3.93178L7.1541 3.77885C6.90162 3.78413 5.58021 3.8263 4.1621 4.84403C4.1621 4.84403 2.57749 7.5017 2.57749 10.7658C2.58728 10.7542 2.62614 10.7935 2.69765 10.8657L2.69766 10.8657C3.01858 11.1898 3.99704 12.178 5.95621 12.2212ZM10.8665 7.49128V7.486C11.4788 7.486 11.973 7.99224 11.973 8.61445C11.973 9.23666 11.4788 9.74293 10.8665 9.74293C10.2541 9.74293 9.75986 9.23669 9.75986 8.61973C9.75986 7.99746 10.2594 7.49128 10.8665 7.49128ZM6.96642 7.49103V7.48575C6.35404 7.48575 5.85986 7.99196 5.85986 8.6142C5.85986 9.23644 6.35407 9.74268 6.96642 9.74268C7.57878 9.74268 8.07302 9.23644 8.07302 8.61948C8.07302 7.99727 7.57343 7.49103 6.96642 7.49103Z" fill="#242424"/>
</svg>
