<svg width="24" height="24" viewBox="0 0 24 24" fill="none" xmlns="http://www.w3.org/2000/svg">
<path fill-rule="evenodd" clip-rule="evenodd" d="M12 0C18.6274 0 24 5.37259 24 12C24 18.6274 18.6274 24 12 24C5.37259 24 0 18.6274 0 12C0 5.37259 5.37259 0 12 0ZM7.56029 18.3317C7.56029 18.3317 8.1648 17.6592 8.59973 17.0662C6.50477 16.4729 5.71493 15.2865 5.71493 15.2865C7.89312 16.6332 9.92741 17.1514 12 17.0841C14.0726 17.1513 16.1069 16.6332 18.2848 15.2865C18.2848 15.2865 17.4952 16.4729 15.4 17.0662C15.8351 17.6594 16.4394 18.3317 16.4394 18.3317C19.3784 18.267 20.8461 16.7848 21.3275 16.2986C21.4348 16.1902 21.4931 16.1313 21.5078 16.1486C21.5078 11.2526 19.1309 7.26605 19.1309 7.26605C17.0037 5.73965 15.0216 5.67619 14.6429 5.66827L14.4011 5.89766C17.1165 6.65698 18.4299 7.84344 18.4299 7.84344C16.0993 6.71779 13.9028 6.32184 12 6.29813C10.0972 6.32213 7.9008 6.71779 5.57011 7.84344C5.57011 7.84344 6.88349 6.65698 9.59885 5.89766L9.35712 5.66827C8.9784 5.67619 6.99629 5.73946 4.86912 7.26605C4.86912 7.26605 2.49221 11.2525 2.49221 16.1486C2.50689 16.1313 2.56519 16.1902 2.67246 16.2986C3.15385 16.7847 4.62153 18.267 7.56029 18.3317ZM14.9237 11.2374V11.2295C15.8422 11.2295 16.5835 11.9889 16.5835 12.9222C16.5835 13.8555 15.8422 14.6149 14.9237 14.6149C14.0051 14.6149 13.2638 13.8555 13.2638 12.9301C13.2638 11.9967 14.0131 11.2374 14.9237 11.2374ZM9.07449 11.2367V11.2288C8.15591 11.2288 7.41465 11.9881 7.41465 12.9214C7.41465 13.8548 8.15596 14.6142 9.07449 14.6142C9.99302 14.6142 10.7344 13.8548 10.7344 12.9294C10.7344 11.996 9.985 11.2367 9.07449 11.2367Z" fill="white"/>
</svg>
