<svg width="25" height="24" viewBox="0 0 25 24" fill="none" xmlns="http://www.w3.org/2000/svg">
<path d="M11.9985 0C5.373 0 0.0289935 5.5086 0.0647597 12.304C0.0933662 17.739 3.55564 22.3499 8.33421 23.9783C8.9348 24.0917 9.1518 23.7118 9.15009 23.3855C9.14855 23.0929 9.13397 22.3193 9.12257 21.293C5.78898 22.0359 5.07139 19.6431 5.07139 19.6431C4.51941 18.2216 3.72991 17.8432 3.72991 17.8432C2.6354 17.0803 3.80698 17.0956 3.80698 17.0956C5.01194 17.183 5.65116 18.364 5.65116 18.364C6.73205 20.2436 8.46769 19.7014 9.15003 19.3858C9.25385 18.5907 9.56149 18.0485 9.90337 17.7406C7.23774 17.4296 4.43018 16.3741 4.40537 11.6606C4.3983 10.3171 4.86052 9.21878 5.62399 8.35787C5.49785 8.0469 5.08027 6.79536 5.72386 5.10265C5.72386 5.10265 6.73012 4.77177 9.03049 6.36338C9.98606 6.09071 11.0113 5.95437 12.0328 5.94977C13.0513 5.9559 14.0796 6.09071 15.0395 6.36491C17.3216 4.7733 18.3299 5.10418 18.3299 5.10418C18.9928 6.79843 18.5884 8.04843 18.467 8.3594C19.241 9.22031 19.7103 10.3187 19.7174 11.6621C19.7423 16.3879 16.9427 17.4281 14.2713 17.7329C14.7038 18.1128 15.0918 18.8634 15.0978 20.0108C15.1065 21.656 15.0985 22.9826 15.1006 23.3855C15.1023 23.7148 15.3203 24.0978 15.9287 23.9768C20.6826 22.3469 24.0934 17.7375 24.0648 12.304C24.029 5.5086 18.627 0 11.9985 0Z" fill="white"/>
</svg>
