<svg width="17" height="16" viewBox="0 0 17 16" fill="none" xmlns="http://www.w3.org/2000/svg">
<path d="M8.91502 0C4.49802 0 0.935345 3.6724 0.959189 8.20264C0.97826 11.826 3.28644 14.9 6.47215 15.9856C6.87255 16.0611 7.01722 15.8079 7.01607 15.5903C7.01505 15.3953 7.00533 14.8795 6.99773 14.1953C4.77534 14.6906 4.29694 13.0954 4.29694 13.0954C3.92895 12.1477 3.40263 11.8955 3.40263 11.8955C2.67295 11.3869 3.454 11.3971 3.454 11.3971C4.25731 11.4553 4.68345 12.2427 4.68345 12.2427C5.40405 13.4958 6.56115 13.1342 7.01604 12.9239C7.08525 12.3938 7.29035 12.0323 7.51827 11.827C5.74117 11.6197 3.86947 10.9161 3.85293 7.77372C3.84822 6.87809 4.15636 6.14585 4.66534 5.57191C4.58125 5.3646 4.30286 4.53024 4.73192 3.40177C4.73192 3.40177 5.40276 3.18118 6.93634 4.24225C7.57339 4.06047 8.25691 3.96958 8.93789 3.96652C9.61691 3.9706 10.3024 4.06047 10.9423 4.24327C12.4638 3.1822 13.1359 3.40279 13.1359 3.40279C13.5779 4.53229 13.3083 5.36562 13.2273 5.57294C13.7434 6.14688 14.0562 6.87911 14.0609 7.77474C14.0775 10.9253 12.2112 11.6187 10.4302 11.8219C10.7186 12.0752 10.9772 12.5756 10.9812 13.3405C10.987 14.4373 10.9817 15.3217 10.9831 15.5903C10.9842 15.8099 11.1296 16.0652 11.5351 15.9845C14.7044 14.8979 16.9783 11.825 16.9592 8.20264C16.9353 3.6724 13.334 0 8.91502 0Z" fill="#242424"/>
</svg>
