<svg width="19" height="16" viewBox="0 0 19 16" fill="none" xmlns="http://www.w3.org/2000/svg">
<path d="M18.9673 2.40281C18.296 2.69727 17.5807 2.89245 16.835 2.98722C17.6022 2.52917 18.1877 1.80938 18.463 0.941786C17.7477 1.36825 16.958 1.66948 16.1163 1.83758C15.4371 1.1144 14.4691 0.666504 13.4131 0.666504C11.3643 0.666504 9.71489 2.32948 9.71489 4.36814C9.71489 4.66148 9.73971 4.94353 9.80063 5.21204C6.72402 5.06199 4.00166 3.58743 2.17284 1.34117C1.85355 1.89512 1.66627 2.52917 1.66627 3.21173C1.66627 4.49338 2.32627 5.62948 3.31007 6.28722C2.7155 6.27594 2.13222 6.10332 1.63807 5.83143C1.63807 5.84271 1.63807 5.85738 1.63807 5.87204C1.63807 7.6704 2.92084 9.16414 4.60299 9.50825C4.30176 9.59061 3.97345 9.63009 3.63273 9.63009C3.39581 9.63009 3.15663 9.61655 2.93212 9.56691C3.41161 11.0325 4.77222 12.1099 6.39007 12.1449C5.13099 13.1298 3.53232 13.7232 1.80166 13.7232C1.49817 13.7232 1.20709 13.7097 0.916016 13.6725C2.5553 14.7296 4.49807 15.3332 6.59314 15.3332C13.403 15.3332 17.1261 9.69214 17.1261 4.8025C17.1261 4.63891 17.1204 4.48097 17.1125 4.32414C17.847 3.80291 18.4641 3.15194 18.9673 2.40281Z" fill="#242424"/>
</svg>
