<svg width="25" height="22" viewBox="0 0 25 22" fill="none" xmlns="http://www.w3.org/2000/svg">
<path d="M24.0684 3.53676C23.1733 3.92937 22.2196 4.18961 21.2253 4.31597C22.2482 3.70524 23.0289 2.74551 23.396 1.58872C22.4423 2.15734 21.3893 2.55898 20.2671 2.78312C19.3615 1.81888 18.0708 1.22168 16.6628 1.22168C13.9311 1.22168 11.7318 3.43898 11.7318 6.1572C11.7318 6.54831 11.7649 6.92438 11.8462 7.2824C7.744 7.08233 4.11419 5.11624 1.67576 2.12124C1.25005 2.85983 1.00034 3.70524 1.00034 4.61532C1.00034 6.32418 1.88034 7.83898 3.19207 8.71597C2.39932 8.70093 1.62161 8.47077 0.962735 8.10824C0.962735 8.12329 0.962735 8.14284 0.962735 8.1624C0.962735 10.5602 2.67309 12.5519 4.91597 13.0107C4.51432 13.1205 4.07658 13.1731 3.62229 13.1731C3.30639 13.1731 2.98749 13.1551 2.68814 13.0889C3.32745 15.0429 5.14161 16.4795 7.29874 16.5262C5.61997 17.8394 3.48841 18.6306 1.18085 18.6306C0.776205 18.6306 0.388103 18.6126 0 18.5629C2.18571 19.9724 4.77607 20.7772 7.5695 20.7772C16.6493 20.7772 21.6134 13.2559 21.6134 6.73635C21.6134 6.51823 21.6059 6.30763 21.5953 6.09853C22.5746 5.40356 23.3975 4.53559 24.0684 3.53676Z" fill="white"/>
</svg>
